{"glyphs":{"0":{"ha":694,"x_min":58,"x_max":640,"o":"m 58 444 q 139 784 58 656 q 349 911 219 911 q 560 783 479 911 q 640 444 640 655 q 560 106 640 235 q 349 -22 480 -22 q 139 105 219 -22 q 58 444 58 233 m 171 444 q 218 86 171 163 q 349 10 265 10 q 488 101 448 10 q 527 444 527 193 q 480 802 527 726 q 349 878 433 878 q 218 803 266 878 q 171 444 171 727 z "},"1":{"ha":694,"x_min":199,"x_max":511,"o":"m 372 911 l 402 911 l 402 191 q 405 79 402 102 q 424 43 407 56 q 484 31 441 31 l 511 31 l 511 0 l 205 0 l 205 31 l 228 31 q 291 45 277 31 q 308 78 306 59 q 311 191 311 98 l 311 673 q 309 784 311 765 q 291 818 307 804 q 228 833 276 833 l 199 833 l 199 864 q 372 911 316 866 z "},"2":{"ha":694,"x_min":79,"x_max":610,"o":"m 79 0 l 79 42 q 275 233 157 102 q 446 458 393 363 q 498 650 498 553 q 445 821 498 766 q 313 876 392 876 q 194 825 236 876 q 151 718 151 775 q 206 615 151 653 q 227 593 227 601 q 203 560 227 581 q 165 539 180 539 q 116 580 145 539 q 87 686 87 621 q 168 850 87 789 q 345 911 249 911 q 529 848 447 911 q 610 661 610 785 q 574 512 610 583 q 396 298 537 442 q 168 81 254 154 l 600 81 l 561 -71 l 529 -71 q 533 -46 529 -58 q 535 -28 535 -39 q 526 -4 535 -7 q 479 0 517 0 l 79 0 z "},"3":{"ha":694,"x_min":80,"x_max":602,"o":"m 345 494 q 387 500 366 500 q 544 432 487 500 q 602 260 602 363 q 517 57 602 136 q 298 -22 432 -22 q 144 18 209 -22 q 80 106 80 59 q 92 139 80 125 q 124 153 104 153 q 174 105 159 153 q 229 26 193 43 q 297 7 263 7 q 436 70 382 7 q 489 263 489 132 q 449 420 489 368 q 355 471 410 471 q 252 414 309 471 q 233 404 243 404 q 212 426 212 404 q 223 446 212 435 q 282 490 233 456 q 424 610 389 562 q 458 732 458 659 q 422 840 458 802 q 327 878 387 878 q 219 839 266 878 q 172 740 172 800 q 213 650 172 692 q 218 642 218 645 q 195 623 218 633 q 163 612 173 612 q 123 644 142 612 q 105 713 105 676 q 170 850 105 789 q 345 911 235 911 q 514 860 456 911 q 571 745 571 808 q 532 642 571 690 q 400 532 493 594 l 345 494 z "},"4":{"ha":694,"x_min":45,"x_max":667,"o":"m 379 306 l 45 306 l 45 347 l 433 911 l 476 911 l 476 347 l 538 347 q 607 353 596 347 q 637 411 618 360 l 667 411 l 651 306 l 476 306 l 476 191 q 480 72 476 92 q 502 41 484 51 q 570 31 520 31 l 570 0 l 273 0 l 273 31 l 297 31 q 355 42 338 31 q 376 74 372 54 q 379 191 379 94 l 379 306 m 379 347 l 379 777 l 83 347 l 379 347 z "},"5":{"ha":694,"x_min":62,"x_max":606,"o":"m 182 467 l 147 467 l 168 888 l 519 888 q 477 809 490 820 q 431 798 464 798 l 193 798 l 182 517 q 351 605 251 605 q 531 520 456 605 q 606 310 606 435 q 522 72 606 165 q 286 -22 437 -22 q 121 27 180 -22 q 62 116 62 76 q 74 146 62 134 q 106 159 85 159 q 140 146 128 159 q 167 92 151 133 q 288 7 197 7 q 434 77 375 7 q 494 304 494 147 q 445 506 494 446 q 330 566 396 566 q 182 467 236 566 z "},"6":{"ha":694,"x_min":67,"x_max":640,"o":"m 184 460 q 272 535 226 510 q 370 560 319 560 q 559 477 479 560 q 640 270 640 395 q 562 65 640 153 q 365 -22 485 -22 q 193 42 263 -22 q 95 203 123 106 q 67 404 67 300 q 162 765 67 620 q 415 911 256 911 q 547 879 490 911 q 604 806 604 846 q 565 768 604 768 q 512 805 532 768 q 468 861 492 844 q 397 877 444 877 q 236 782 290 877 q 182 496 182 687 q 184 460 182 479 m 180 279 q 198 149 180 214 q 260 47 217 84 q 357 9 304 9 q 484 77 442 9 q 526 280 526 145 q 510 413 526 366 q 452 493 494 461 q 357 525 410 525 q 233 472 287 525 q 180 279 180 418 z "},"7":{"ha":694,"x_min":104,"x_max":601,"o":"m 104 724 l 161 911 l 185 911 q 196 893 186 897 q 250 888 206 888 l 601 888 l 357 146 q 297 1 317 24 q 254 -22 276 -22 q 214 20 214 -22 q 252 126 214 45 q 269 164 262 147 l 542 799 l 252 799 q 182 797 194 799 q 161 782 171 794 q 135 724 151 769 l 104 724 z "},"8":{"ha":694,"x_min":61,"x_max":632,"o":"m 406 463 q 564 391 495 455 q 632 226 632 327 q 549 43 632 109 q 346 -22 465 -22 q 142 48 224 -22 q 61 223 61 118 q 119 378 61 314 q 281 463 178 443 q 144 544 197 484 q 91 686 91 604 q 163 848 91 785 q 346 911 236 911 q 526 849 448 911 q 604 686 604 788 q 554 545 604 604 q 406 463 505 486 m 197 699 q 233 533 197 589 q 340 478 269 478 q 456 531 418 478 q 495 688 495 583 q 455 832 495 783 q 343 882 414 882 q 239 837 280 882 q 197 699 197 791 m 174 232 q 188 111 174 155 q 242 37 202 66 q 342 8 283 8 q 469 52 418 8 q 519 224 519 95 q 469 399 519 353 q 340 446 418 446 q 215 388 256 446 q 174 232 174 331 z "},"9":{"ha":694,"x_min":59,"x_max":631,"o":"m 515 429 q 427 353 473 378 q 328 328 380 328 q 139 411 218 328 q 59 618 59 494 q 136 824 59 736 q 334 911 214 911 q 505 846 435 911 q 603 685 575 782 q 631 484 631 589 q 537 123 631 269 q 283 -22 442 -22 q 152 10 209 -22 q 95 83 95 43 q 134 121 95 121 q 191 75 168 121 q 302 12 224 12 q 463 107 409 12 q 516 392 516 202 q 515 429 516 408 m 518 609 q 500 740 518 675 q 438 842 481 804 q 341 879 395 879 q 214 811 256 879 q 172 608 172 744 q 188 475 172 523 q 247 395 204 427 q 341 363 289 363 q 465 417 412 363 q 518 609 518 470 z "},"\u0000":{"ha":0,"x_min":0,"x_max":0,"o":""},"\b":{"ha":0,"x_min":0,"x_max":0,"o":""},"\t":{"ha":347,"x_min":0,"x_max":0,"o":""},"\r":{"ha":347,"x_min":0,"x_max":0,"o":""},"\u001d":{"ha":0,"x_min":0,"x_max":0,"o":""}," ":{"ha":347,"x_min":0,"x_max":0,"o":""},"!":{"ha":347,"x_min":104,"x_max":250,"o":"m 193 262 l 163 262 l 123 743 q 118 826 118 810 q 136 888 118 866 q 178 911 154 911 q 219 889 201 911 q 238 825 238 867 q 233 743 238 802 l 193 262 m 104 51 q 126 102 104 81 q 177 123 147 123 q 229 102 208 123 q 250 51 250 81 q 229 -1 250 20 q 177 -22 207 -22 q 125 0 146 -22 q 104 51 104 22 z "},"\"":{"ha":564,"x_min":90,"x_max":475,"o":"m 142 515 l 105 715 q 90 827 90 798 q 157 911 90 911 q 205 891 184 911 q 226 835 226 872 q 208 714 226 810 l 172 515 l 142 515 m 391 515 l 354 712 q 338 828 338 799 q 408 911 338 911 q 456 891 437 911 q 475 836 475 871 q 462 713 475 780 l 423 515 l 391 515 z "},"#":{"ha":926,"x_min":62,"x_max":864,"o":"m 62 651 l 287 651 l 346 930 l 416 930 l 357 651 l 654 651 l 713 930 l 783 930 l 724 651 l 864 651 l 864 581 l 711 581 l 656 316 l 864 316 l 864 245 l 642 245 l 584 -32 l 513 -32 l 572 245 l 271 245 l 215 -32 l 144 -32 l 202 245 l 62 245 l 62 316 l 217 316 l 272 581 l 62 581 l 62 651 m 342 581 l 286 317 l 586 317 l 641 581 l 342 581 z "},"$":{"ha":680,"x_min":64,"x_max":616,"o":"m 236 -13 q 114 50 165 4 q 64 134 64 96 q 76 169 64 156 q 103 182 87 182 q 148 132 137 182 q 236 22 167 51 l 236 460 q 73 683 73 533 q 117 814 73 758 q 236 892 161 869 l 236 939 l 265 939 l 265 900 q 336 906 299 906 q 399 900 365 906 l 399 939 l 429 939 l 429 892 q 552 820 507 870 q 596 728 596 770 q 584 693 596 706 q 557 681 572 681 q 526 695 537 681 q 506 757 515 710 q 429 857 492 831 l 429 483 q 616 237 616 406 q 570 91 616 159 q 429 -6 523 23 l 429 -142 l 399 -142 l 399 -13 q 317 -22 357 -22 q 265 -18 291 -22 l 265 -142 l 236 -142 l 236 -13 m 265 870 l 265 551 l 399 494 l 399 870 q 328 879 363 879 q 265 870 292 879 m 236 566 l 236 864 q 134 711 134 817 q 236 566 134 616 m 265 447 l 265 14 q 324 7 292 7 q 399 18 364 7 l 399 388 l 265 447 m 429 375 l 429 31 q 548 210 548 83 q 429 375 548 323 z "},"%":{"ha":1215,"x_min":56,"x_max":1157,"o":"m 425 695 q 372 522 425 590 q 241 454 319 454 q 107 525 159 454 q 56 695 56 595 q 108 867 56 797 q 241 937 159 937 q 372 868 320 937 q 425 695 425 800 m 336 695 q 313 858 336 804 q 241 911 289 911 q 169 858 193 911 q 144 695 144 804 q 169 533 144 587 q 241 479 193 479 q 313 533 289 479 q 336 695 336 587 m 393 0 l 351 0 l 823 888 l 865 888 l 393 0 m 1157 220 q 1105 47 1157 117 q 973 -22 1054 -22 q 840 48 891 -22 q 789 220 789 119 q 840 392 789 321 q 973 462 892 462 q 1104 393 1052 462 q 1157 220 1157 325 m 1069 220 q 1045 383 1069 329 q 973 437 1021 437 q 901 383 925 437 q 877 220 877 329 q 901 58 877 113 q 973 4 925 4 q 1045 58 1021 4 q 1069 220 1069 113 z "},"&":{"ha":969,"x_min":61,"x_max":972,"o":"m 598 555 l 888 555 l 888 524 q 792 471 833 509 q 708 328 751 433 q 641 201 671 241 q 755 69 713 97 q 843 41 796 41 q 941 102 907 41 l 972 102 q 912 12 958 46 q 804 -22 865 -22 q 572 111 672 -22 q 319 -22 452 -22 q 195 9 254 -22 q 98 98 136 41 q 61 229 61 155 q 107 373 61 315 q 286 519 154 431 q 206 719 206 629 q 260 845 206 789 q 397 900 315 900 q 529 859 470 900 q 588 750 588 817 q 393 547 588 646 q 621 231 513 384 q 682 343 659 286 q 704 434 704 401 q 598 524 704 512 l 598 555 m 374 573 q 509 745 509 652 q 479 833 509 800 q 399 867 449 867 q 321 835 351 867 q 292 754 292 802 q 374 573 292 688 m 306 491 q 197 390 235 448 q 158 277 158 332 q 225 120 158 194 q 377 45 292 45 q 551 138 471 45 q 306 491 409 356 z "},"'":{"ha":246,"x_min":55,"x_max":191,"o":"m 107 514 l 71 715 q 55 823 55 800 q 121 911 55 911 q 172 890 152 911 q 191 836 191 870 q 174 714 191 812 l 137 514 l 107 514 z "},"(":{"ha":333,"x_min":66,"x_max":340,"o":"m 340 -332 l 293 -332 q 66 312 66 -50 q 286 928 66 654 l 332 928 q 166 648 224 810 q 109 317 109 487 q 176 -64 109 106 q 340 -332 243 -234 z "},")":{"ha":333,"x_min":-7,"x_max":266,"o":"m -7 -332 q 156 -64 88 -234 q 223 317 223 106 q 168 641 223 479 q -1 928 113 803 l 47 928 q 266 312 266 654 q 39 -332 266 -50 l -7 -332 z "},"*":{"ha":578,"x_min":35,"x_max":543,"o":"m 277 654 q 242 796 269 716 q 229 855 229 834 q 246 907 229 889 q 283 925 263 925 q 323 907 304 925 q 342 856 342 890 q 323 780 342 836 q 297 654 302 722 q 387 739 340 683 q 490 810 448 810 q 528 796 512 810 q 543 758 543 782 q 518 707 543 724 q 437 679 492 689 q 308 637 367 665 q 409 606 342 618 q 518 568 494 591 q 543 517 543 545 q 528 483 543 498 q 491 469 513 469 q 387 534 446 469 q 297 620 330 597 q 330 479 302 549 q 344 423 344 443 q 327 373 344 393 q 288 353 311 353 q 249 372 267 353 q 231 422 231 390 q 245 481 231 441 q 277 620 271 557 q 174 521 228 589 q 92 468 132 468 q 52 481 68 468 q 35 519 35 495 q 146 600 35 583 q 269 637 236 615 q 144 678 207 667 q 37 757 37 697 q 54 793 37 779 q 92 808 71 808 q 182 749 132 808 q 222 707 203 725 l 277 654 z "},"+":{"ha":926,"x_min":96,"x_max":830,"o":"m 96 479 l 425 479 l 425 810 l 498 810 l 498 479 l 830 479 l 830 406 l 498 406 l 498 79 l 425 79 l 425 406 l 96 406 l 96 479 z "},",":{"ha":347,"x_min":75,"x_max":270,"o":"m 75 -264 l 75 -231 q 187 -157 147 -210 q 227 -52 227 -104 q 199 -7 227 -7 q 181 -10 193 -7 q 162 -14 171 -14 q 111 4 132 -14 q 91 52 91 22 q 111 103 91 83 q 161 123 130 123 q 240 79 210 123 q 270 -25 270 35 q 217 -176 270 -111 q 75 -264 165 -241 z "},"-":{"ha":434,"x_min":48,"x_max":381,"o":"m 48 332 l 381 332 l 381 229 l 48 229 l 48 332 z "},".":{"ha":347,"x_min":100,"x_max":245,"o":"m 100 51 q 121 102 100 81 q 172 123 142 123 q 224 102 203 123 q 245 51 245 81 q 224 -1 245 20 q 172 -22 202 -22 q 121 0 142 -22 q 100 51 100 22 z "},"/":{"ha":724,"x_min":92,"x_max":636,"o":"m 554 911 l 636 911 l 174 -22 l 92 -22 l 554 911 z "},":":{"ha":347,"x_min":102,"x_max":248,"o":"m 102 521 q 123 572 102 550 q 175 594 144 594 q 227 573 205 594 q 248 521 248 551 q 227 470 248 491 q 175 448 205 448 q 123 470 144 448 q 102 521 102 492 m 102 51 q 124 102 102 81 q 175 123 145 123 q 227 102 205 123 q 248 51 248 81 q 227 -1 248 20 q 175 -22 205 -22 q 123 0 144 -22 q 102 51 102 22 z "},";":{"ha":347,"x_min":75,"x_max":270,"o":"m 100 521 q 121 573 100 551 q 173 594 142 594 q 224 573 203 594 q 245 521 245 551 q 224 470 245 491 q 173 448 203 448 q 121 470 142 448 q 100 521 100 492 m 75 -264 l 75 -231 q 187 -157 147 -210 q 227 -52 227 -104 q 199 -7 227 -7 q 181 -10 193 -7 q 162 -14 171 -14 q 111 4 132 -14 q 91 52 91 22 q 111 103 91 83 q 161 123 130 123 q 240 79 210 123 q 270 -25 270 35 q 217 -176 270 -111 q 75 -264 165 -241 z "},"<":{"ha":926,"x_min":98,"x_max":829,"o":"m 829 102 l 98 412 l 98 478 l 829 786 l 829 707 l 195 445 l 829 182 l 829 102 z "},"=":{"ha":926,"x_min":98,"x_max":829,"o":"m 98 639 l 829 639 l 829 566 l 98 566 l 98 639 m 98 323 l 829 323 l 829 250 l 98 250 l 98 323 z "},">":{"ha":926,"x_min":98,"x_max":829,"o":"m 98 786 l 829 477 l 829 411 l 98 102 l 98 182 l 731 444 l 98 706 l 98 786 z "},"?":{"ha":550,"x_min":64,"x_max":480,"o":"m 197 257 l 167 257 l 167 542 l 197 542 q 271 490 225 490 q 350 542 323 490 q 376 697 376 594 q 334 837 376 793 q 237 881 292 881 q 140 814 172 881 q 97 780 125 780 q 64 814 64 780 q 118 881 64 851 q 242 911 172 911 q 417 837 355 911 q 480 658 480 763 q 427 509 480 568 q 297 450 374 450 q 197 488 237 450 l 197 257 m 110 51 q 131 102 110 81 q 182 123 153 123 q 234 102 213 123 q 256 51 256 81 q 234 -1 256 20 q 182 -22 213 -22 q 131 0 152 -22 q 110 51 110 22 z "},"@":{"ha":1273,"x_min":66,"x_max":1245,"o":"m 955 650 l 876 379 q 812 123 812 163 q 826 86 812 102 q 864 70 840 70 q 988 124 919 70 q 1104 288 1058 179 q 1151 513 1151 396 q 1028 811 1151 693 q 711 930 906 930 q 419 846 549 930 q 210 610 290 762 q 130 281 130 459 q 279 -107 130 43 q 656 -258 429 -258 q 907 -206 793 -258 q 1092 -68 1021 -153 q 1206 117 1164 18 l 1245 117 q 1023 -184 1187 -68 q 659 -300 859 -300 q 235 -129 404 -300 q 66 298 66 43 q 253 772 66 581 q 715 964 440 964 q 1060 833 928 964 q 1192 498 1192 701 q 1084 165 1192 309 q 819 21 977 21 q 740 45 766 21 q 713 115 713 68 q 726 214 713 155 q 458 20 570 20 q 369 70 401 20 q 336 180 336 119 q 389 378 336 267 q 537 571 442 489 q 711 654 631 654 q 786 630 758 654 q 826 560 815 607 l 848 635 l 955 650 m 717 622 q 535 461 628 622 q 443 201 443 301 q 464 132 443 162 q 522 102 486 102 q 662 185 586 102 q 770 367 739 267 q 802 522 802 467 q 779 593 802 564 q 717 622 757 622 z "},"A":{"ha":941,"x_min":1,"x_max":949,"o":"m 600 339 l 250 339 l 227 281 q 174 115 174 154 q 202 53 174 74 q 274 31 230 31 l 274 0 l 1 0 l 1 31 q 92 74 62 41 q 163 216 121 108 q 196 294 167 226 l 463 932 l 490 932 l 797 202 l 839 106 q 877 55 853 73 q 949 31 901 36 l 949 0 l 588 0 l 588 31 q 678 41 654 31 q 701 80 701 51 q 670 169 701 95 l 600 339 m 588 370 l 425 762 l 263 370 l 588 370 z "},"B":{"ha":854,"x_min":33,"x_max":792,"o":"m 484 495 q 716 417 640 484 q 792 251 792 351 q 741 101 792 164 q 609 19 689 39 q 393 0 528 0 l 33 0 l 33 31 l 68 31 q 150 46 127 31 q 178 93 172 61 q 184 239 184 124 l 184 687 q 178 831 184 799 q 151 876 172 864 q 60 888 130 888 l 43 888 l 43 920 l 194 924 l 366 929 q 743 712 743 929 q 679 568 743 623 q 484 495 614 514 m 317 508 q 346 507 334 507 q 546 553 492 507 q 600 703 600 600 q 578 814 600 774 q 515 874 557 853 q 372 896 473 896 q 317 894 345 896 l 317 508 m 317 475 l 317 270 q 322 104 317 139 q 348 50 327 68 q 429 32 368 32 q 592 87 538 32 q 646 254 646 143 q 585 422 646 368 q 369 476 524 476 q 317 475 345 476 z "},"C":{"ha":998,"x_min":71,"x_max":907,"o":"m 878 345 l 907 345 l 907 23 l 878 23 q 833 120 865 78 q 524 -17 712 -17 q 198 109 324 -17 q 71 443 71 235 q 130 700 71 579 q 292 878 188 820 q 522 937 397 937 q 708 894 625 937 q 833 800 792 852 q 869 920 863 858 l 899 920 l 907 571 l 878 571 q 753 829 847 757 q 541 902 659 902 q 312 785 397 902 q 227 449 227 667 q 319 132 227 242 q 551 22 412 22 q 702 58 625 22 q 824 179 779 94 q 878 345 869 265 z "},"D":{"ha":1056,"x_min":28,"x_max":985,"o":"m 33 912 l 184 920 q 439 929 373 929 q 758 867 644 929 q 929 697 873 804 q 985 451 985 591 q 954 266 985 350 q 870 127 924 182 q 747 43 817 72 q 614 7 677 14 q 436 0 551 0 l 28 0 l 28 31 l 66 31 q 148 46 125 31 q 177 93 171 61 q 184 239 184 124 l 184 683 q 177 825 184 793 q 150 869 171 857 q 60 881 130 881 l 33 881 l 33 912 m 316 893 l 316 279 q 321 103 316 142 q 352 48 326 64 q 459 32 377 32 q 656 65 579 32 q 786 194 734 98 q 838 441 838 291 q 807 649 838 557 q 721 798 777 741 q 596 876 665 855 q 420 897 528 897 q 316 893 369 897 z "},"E":{"ha":868,"x_min":44,"x_max":825,"o":"m 793 286 l 825 286 l 806 0 l 44 0 l 44 31 l 63 31 q 152 50 132 31 q 177 96 172 68 q 182 239 182 124 l 182 690 q 177 829 182 795 q 150 875 171 862 q 63 888 130 888 l 63 920 l 720 920 l 742 690 l 710 690 q 657 827 688 787 q 582 878 625 867 q 442 888 538 888 l 315 888 l 315 503 l 412 503 q 506 514 479 503 q 542 549 533 526 q 550 640 550 572 l 582 640 l 582 326 l 550 326 q 537 428 550 402 q 499 462 524 454 q 416 470 475 470 l 315 470 l 315 252 q 336 60 315 89 q 449 31 357 31 l 517 31 q 637 50 590 31 q 726 126 684 68 q 793 286 768 184 z "},"F":{"ha":767,"x_min":39,"x_max":761,"o":"m 753 920 l 761 690 l 729 690 q 687 815 720 766 q 618 876 654 864 q 496 888 582 888 l 317 888 l 317 498 l 403 498 q 514 527 486 498 q 541 640 541 555 l 575 640 l 575 315 l 541 315 q 529 409 541 374 q 494 455 517 443 q 403 468 471 468 l 317 468 l 317 239 q 322 97 317 131 q 350 47 328 64 q 435 31 372 31 l 466 31 l 466 0 l 39 0 l 39 31 l 67 31 q 149 46 126 31 q 178 93 172 61 q 184 239 184 124 l 184 690 q 178 832 184 800 q 151 876 172 864 q 60 888 130 888 l 44 888 l 44 920 l 753 920 z "},"G":{"ha":1071,"x_min":71,"x_max":1038,"o":"m 641 393 l 1038 393 l 1038 360 q 948 347 972 360 q 918 303 925 334 q 910 153 910 272 l 910 56 q 881 58 894 58 q 744 26 829 58 q 530 -17 629 -17 q 202 113 333 -17 q 71 442 71 243 q 196 788 71 640 q 535 937 321 937 q 840 801 720 937 q 869 903 863 848 l 901 903 l 901 596 l 869 596 q 761 821 849 738 q 548 903 673 903 q 322 807 418 903 q 226 465 226 711 q 319 118 226 220 q 549 16 412 16 q 677 45 620 16 q 756 115 735 74 q 777 220 777 157 q 767 318 777 294 q 737 352 758 343 q 663 360 717 360 l 641 360 l 641 393 z "},"H":{"ha":1114,"x_min":43,"x_max":1067,"o":"m 797 461 l 317 461 l 317 239 q 322 97 317 131 q 350 47 328 64 q 433 31 372 31 l 457 31 l 457 0 l 43 0 l 43 31 l 67 31 q 149 46 126 31 q 178 93 172 61 q 184 239 184 124 l 184 690 q 178 832 184 800 q 151 876 172 864 q 60 888 130 888 l 43 888 l 43 920 l 457 920 l 457 888 l 440 888 q 352 877 373 888 q 324 836 331 866 q 317 690 317 805 l 317 508 l 797 508 l 797 690 q 791 832 797 800 q 764 876 785 864 q 673 888 743 888 l 649 888 l 649 920 l 1067 920 l 1067 888 l 1054 888 q 965 877 986 888 q 937 836 944 866 q 930 690 930 805 l 930 239 q 935 97 930 131 q 962 47 940 64 q 1046 31 985 31 l 1067 31 l 1067 0 l 649 0 l 649 31 l 681 31 q 762 46 739 31 q 791 93 785 61 q 797 239 797 124 l 797 461 z "},"I":{"ha":492,"x_min":36,"x_max":456,"o":"m 36 888 l 36 920 l 456 920 l 456 888 l 437 888 q 348 877 369 888 q 320 836 327 866 q 313 690 313 805 l 313 239 q 318 97 313 131 q 345 47 323 64 q 429 31 367 31 l 456 31 l 456 0 l 36 0 l 36 31 l 63 31 q 145 46 122 31 q 174 93 168 61 q 180 239 180 124 l 180 690 q 174 832 180 800 q 146 876 168 864 q 56 888 125 888 l 36 888 z "},"J":{"ha":492,"x_min":-222,"x_max":477,"o":"m 50 920 l 477 920 l 477 888 l 454 888 q 365 877 386 888 q 337 836 344 866 q 330 690 330 805 l 330 90 q 321 -88 330 -27 q 270 -207 312 -149 q 158 -296 228 -265 q -5 -328 87 -328 q -166 -289 -110 -328 q -222 -198 -222 -251 q -202 -144 -222 -166 q -153 -123 -182 -123 q -103 -142 -123 -123 q -83 -191 -83 -162 q -92 -226 -83 -208 q -99 -250 -99 -242 q -73 -284 -99 -272 q -9 -296 -47 -296 q 121 -247 68 -296 q 184 -131 174 -198 q 195 90 195 -64 l 195 690 q 189 832 195 800 q 162 876 182 864 q 71 888 141 888 l 50 888 l 50 920 z "},"K":{"ha":1085,"x_min":39,"x_max":1085,"o":"m 317 452 l 598 705 q 696 829 696 792 q 598 888 696 886 l 598 920 l 945 920 l 945 888 q 859 870 902 888 q 780 824 816 852 q 646 704 744 795 l 479 549 l 823 201 q 981 56 941 81 q 1085 31 1021 31 l 1085 0 l 608 0 l 608 31 l 626 31 q 722 44 703 31 q 741 76 741 57 q 643 203 741 104 l 383 465 l 317 407 l 317 239 q 323 97 317 131 q 350 47 328 64 q 435 31 372 31 l 452 31 l 452 0 l 39 0 l 39 31 l 68 31 q 150 46 127 31 q 179 93 172 61 q 185 239 185 124 l 185 690 q 178 836 185 804 q 150 878 171 867 q 52 888 129 888 l 52 920 l 458 920 l 458 888 l 441 888 q 353 877 374 888 q 325 836 332 866 q 317 690 317 805 l 317 452 z "},"L":{"ha":839,"x_min":39,"x_max":827,"o":"m 827 271 l 821 0 l 39 0 l 39 31 l 66 31 q 148 46 125 31 q 177 93 171 61 q 184 239 184 124 l 184 690 q 177 832 184 800 q 150 876 171 864 q 60 888 130 888 l 39 888 l 39 920 l 481 920 l 481 888 l 440 888 q 351 877 372 888 q 323 836 330 866 q 316 690 316 805 l 316 209 q 321 84 316 109 q 351 45 327 59 q 454 31 375 31 l 524 31 q 650 46 609 31 q 728 111 691 61 q 795 271 765 161 l 827 271 z "},"M":{"ha":1288,"x_min":27,"x_max":1261,"o":"m 644 159 l 979 920 l 1261 920 l 1261 888 l 1227 888 q 1139 877 1160 888 q 1111 836 1118 866 q 1103 690 1103 805 l 1103 239 q 1109 97 1103 131 q 1136 47 1114 64 q 1221 31 1158 31 l 1261 31 l 1261 0 l 822 0 l 822 31 l 854 31 q 936 46 913 31 q 965 93 958 61 q 971 239 971 124 l 971 825 l 607 0 l 575 0 l 208 825 l 208 286 q 215 136 208 176 q 257 65 222 96 q 356 31 292 35 l 356 0 l 27 0 l 27 31 q 123 63 86 35 q 168 134 160 92 q 176 290 176 176 l 176 690 q 170 832 176 800 q 143 876 163 864 q 52 888 122 888 l 27 888 l 27 920 l 307 920 l 644 159 z "},"N":{"ha":1042,"x_min":24,"x_max":1028,"o":"m 855 -21 l 205 841 l 205 203 q 213 98 205 123 q 257 52 220 73 q 367 31 294 31 l 367 0 l 24 0 l 24 31 q 124 55 90 36 q 165 97 159 75 q 172 203 172 119 l 172 690 q 162 832 172 796 q 131 878 152 868 q 35 888 109 888 l 35 920 l 307 920 l 851 200 l 851 750 q 839 836 851 811 q 787 874 826 860 q 694 888 749 888 l 694 920 l 1028 920 l 1028 888 q 936 866 970 884 q 893 824 903 848 q 884 740 884 799 l 884 -21 l 855 -21 z "},"O":{"ha":1143,"x_min":71,"x_max":1072,"o":"m 71 466 q 214 808 71 679 q 569 937 356 937 q 928 809 784 937 q 1072 461 1072 682 q 934 115 1072 248 q 571 -17 796 -17 q 212 115 352 -17 q 71 466 71 248 m 227 461 q 315 128 227 239 q 581 17 404 17 q 826 128 736 17 q 916 460 916 239 q 827 788 916 674 q 570 903 739 903 q 315 791 404 903 q 227 461 227 680 z "},"P":{"ha":781,"x_min":45,"x_max":771,"o":"m 319 433 l 319 239 q 325 97 319 131 q 352 47 330 64 q 436 31 374 31 l 467 31 l 467 0 l 45 0 l 45 31 l 70 31 q 152 46 129 31 q 180 93 174 61 q 186 239 186 124 l 186 690 q 180 832 186 800 q 153 876 174 864 q 62 888 132 888 l 45 888 l 45 920 l 161 924 q 376 928 299 928 q 596 906 519 928 q 722 827 673 884 q 771 683 771 770 q 738 550 771 608 q 641 463 704 492 q 420 433 578 433 l 319 433 m 319 467 l 385 467 q 513 483 465 467 q 595 549 562 498 q 627 675 627 600 q 571 842 627 789 q 390 895 515 895 q 319 892 344 895 l 319 467 z "},"Q":{"ha":1143,"x_min":71,"x_max":1344,"o":"m 642 -14 q 573 -17 610 -17 q 211 115 351 -17 q 71 466 71 247 q 213 807 71 678 q 569 937 355 937 q 823 879 701 937 q 1009 710 946 822 q 1072 461 1072 597 q 990 180 1072 302 q 751 9 907 58 l 549 -102 q 585 -100 570 -100 q 932 -168 736 -100 q 1171 -220 1082 -220 q 1316 -128 1293 -220 l 1344 -128 q 1266 -280 1333 -222 q 1095 -338 1200 -338 q 969 -316 1025 -338 q 821 -236 912 -294 q 550 -132 659 -132 q 424 -184 485 -132 q 368 -218 383 -218 q 343 -195 343 -218 q 372 -160 343 -178 q 482 -103 401 -142 q 516 -85 499 -95 l 642 -14 m 227 461 q 315 128 227 239 q 581 17 404 17 q 826 128 736 17 q 916 460 916 239 q 827 788 916 674 q 570 903 739 903 q 315 791 404 903 q 227 461 227 680 z "},"R":{"ha":1013,"x_min":35,"x_max":1010,"o":"m 1010 0 l 762 0 q 561 241 696 46 q 471 361 517 304 q 406 431 424 418 q 351 444 389 444 l 315 444 l 315 239 q 320 97 315 131 q 347 47 325 64 q 431 31 369 31 l 475 31 l 475 0 l 35 0 l 35 31 l 65 31 q 147 46 124 31 q 176 93 170 61 q 182 239 182 124 l 182 690 q 176 832 182 800 q 149 876 170 864 q 58 888 127 888 l 42 888 l 42 920 l 174 926 q 382 932 305 932 q 596 908 514 932 q 730 828 679 884 q 781 695 781 772 q 714 541 781 605 q 519 462 648 477 q 705 261 576 434 q 869 77 809 121 q 1010 31 928 34 l 1010 0 m 315 475 q 420 479 366 476 q 514 494 474 481 q 579 529 554 506 q 618 591 604 553 q 632 684 632 629 q 584 840 632 781 q 372 898 535 898 q 315 895 347 898 l 315 475 z "},"S":{"ha":752,"x_min":80,"x_max":688,"o":"m 80 9 l 80 305 l 114 305 q 387 16 172 16 q 537 72 484 16 q 591 195 591 127 q 544 311 591 264 q 373 410 497 357 q 206 493 262 458 q 118 586 150 529 q 87 707 87 643 q 155 871 87 806 q 328 937 223 937 q 437 918 386 937 q 543 839 489 899 q 578 920 574 876 l 608 920 l 608 679 l 578 679 q 487 844 553 784 q 336 905 422 905 q 215 860 254 905 q 177 763 177 816 q 225 655 177 699 q 397 555 273 610 q 569 470 515 502 q 656 380 623 437 q 688 249 688 323 q 610 57 688 131 q 399 -17 531 -17 q 147 99 248 -17 q 114 9 125 67 l 80 9 z "},"T":{"ha":969,"x_min":35,"x_max":937,"o":"m 66 699 l 35 699 l 40 920 l 932 920 l 937 699 l 908 699 q 865 830 892 789 q 807 879 838 870 q 701 888 776 888 l 553 888 l 553 239 q 558 98 553 132 q 585 47 563 64 q 669 31 608 31 l 714 31 l 714 0 l 256 0 l 256 31 l 303 31 q 385 46 362 31 q 414 93 408 61 q 420 239 420 124 l 420 888 l 284 888 q 165 880 195 888 q 107 829 134 871 q 66 699 81 786 z "},"U":{"ha":1071,"x_min":28,"x_max":1041,"o":"m 734 920 l 1041 920 l 1041 888 q 950 861 980 884 q 913 808 920 838 q 906 695 906 779 l 906 389 q 897 215 906 272 q 844 103 888 158 q 721 16 800 48 q 538 -17 642 -17 q 330 25 415 -17 q 209 133 245 66 q 172 310 172 199 l 173 404 l 173 690 q 166 832 173 800 q 139 876 160 864 q 49 888 119 888 l 28 888 l 28 920 l 448 920 l 448 888 l 429 888 q 340 877 361 888 q 312 836 319 866 q 305 690 305 805 l 305 401 q 319 187 305 250 q 397 77 333 124 q 569 30 462 30 q 722 61 653 30 q 824 140 791 93 q 865 237 858 187 q 873 394 873 287 l 873 707 q 864 817 873 785 q 826 866 855 848 q 734 888 797 884 l 734 920 z "},"V":{"ha":1013,"x_min":4,"x_max":1008,"o":"m 541 -22 l 499 -22 l 182 709 q 154 777 173 729 q 98 865 127 842 q 4 888 69 887 l 4 920 l 400 920 l 400 888 q 301 878 326 888 q 275 836 275 867 q 307 744 275 817 l 572 134 l 784 642 q 838 808 838 769 q 727 888 838 886 l 727 920 l 1008 920 l 1008 888 q 932 858 965 887 q 876 772 900 829 l 814 628 l 541 -22 z "},"W":{"ha":1316,"x_min":0,"x_max":1312,"o":"m 958 -22 l 928 -22 l 648 736 l 403 -22 l 370 -22 l 149 694 q 105 824 119 791 q 71 871 92 856 q 0 888 50 886 l 0 920 l 345 920 l 345 888 q 265 870 283 884 q 248 831 248 857 q 276 717 248 809 l 440 181 l 680 920 l 718 920 l 988 181 l 1128 669 q 1156 799 1156 768 q 1061 888 1156 888 l 1061 920 l 1312 920 l 1312 888 q 1229 847 1256 884 q 1160 670 1202 810 l 958 -22 z "},"X":{"ha":1071,"x_min":16,"x_max":1066,"o":"m 576 510 l 814 220 q 976 48 941 66 q 1066 31 1010 31 l 1066 0 l 610 0 l 610 31 q 706 44 679 31 q 734 85 734 56 q 721 124 734 103 q 656 208 709 144 l 492 410 l 348 235 q 281 149 297 174 q 266 101 266 123 q 372 31 266 32 l 372 0 l 16 0 l 16 31 q 120 57 73 35 q 205 118 166 79 q 317 250 245 157 l 471 435 l 229 726 l 151 819 q 97 869 128 849 q 16 888 66 888 l 16 920 l 408 920 l 408 888 l 395 888 q 317 846 317 888 q 329 810 317 829 q 385 740 341 791 l 553 535 l 706 726 q 765 803 755 787 q 776 837 776 820 q 749 877 776 865 q 656 888 722 888 l 656 920 l 1002 920 l 1002 888 q 853 837 913 888 q 721 693 793 785 l 576 510 z "},"Y":{"ha":941,"x_min":0,"x_max":941,"o":"m 523 402 l 704 707 q 749 812 749 781 q 725 865 749 841 q 640 888 701 888 l 640 920 l 941 920 l 941 888 q 840 842 878 880 q 742 705 802 804 l 536 361 l 536 239 q 543 90 536 122 q 573 44 550 58 q 665 31 597 31 l 665 0 l 273 0 l 273 31 l 288 31 q 370 46 347 31 q 399 93 393 61 q 405 239 405 124 l 405 353 l 176 729 q 83 865 106 843 q 0 888 60 887 l 0 920 l 373 920 l 373 888 q 269 841 269 888 q 303 765 269 822 l 523 402 z "},"Z":{"ha":882,"x_min":42,"x_max":817,"o":"m 42 0 l 42 24 l 635 888 l 349 888 q 229 881 257 888 q 164 827 201 873 q 109 708 127 781 l 79 708 l 109 920 l 792 920 l 792 888 l 205 31 l 486 31 q 667 54 629 31 q 738 131 706 76 q 785 238 769 186 l 817 238 l 785 0 l 42 0 z "},"[":{"ha":477,"x_min":181,"x_max":504,"o":"m 504 -324 l 181 -324 l 181 920 l 504 920 l 504 888 l 347 888 q 290 878 306 888 q 271 848 275 867 q 267 758 267 829 l 267 -162 q 271 -251 267 -231 q 289 -282 274 -271 q 347 -293 304 -293 l 504 -293 l 504 -324 z "},"\\":{"ha":724,"x_min":92,"x_max":636,"o":"m 174 911 l 636 -22 l 554 -22 l 92 911 l 174 911 z "},"]":{"ha":477,"x_min":-28,"x_max":295,"o":"m -28 -324 l -28 -293 l 130 -293 q 186 -282 170 -293 q 205 -252 201 -271 q 209 -162 209 -233 l 209 758 q 205 846 209 826 q 187 877 202 866 q 130 888 172 888 l -28 888 l -28 920 l 295 920 l 295 -324 l -28 -324 z "},"^":{"ha":651,"x_min":17,"x_max":634,"o":"m 346 932 l 634 446 l 535 446 l 326 799 l 118 446 l 17 446 l 309 932 l 346 932 z "},"_":{"ha":694,"x_min":-8,"x_max":703,"o":"m -8 -104 l 703 -104 l 703 -174 l -8 -174 l -8 -104 z "},"`":{"ha":463,"x_min":115,"x_max":348,"o":"m 326 680 l 222 765 q 132 845 148 827 q 115 882 115 864 q 157 920 115 920 q 197 903 179 920 q 246 838 214 887 l 348 680 l 326 680 z "},"a":{"ha":651,"x_min":54,"x_max":637,"o":"m 612 102 l 637 102 q 523 -14 631 -14 q 450 10 477 -14 q 415 83 423 35 q 291 10 347 35 q 191 -14 235 -14 q 94 18 135 -14 q 54 104 54 51 q 122 227 54 174 q 310 328 190 279 l 415 371 l 415 398 q 408 481 415 456 q 369 528 400 507 q 287 548 338 548 q 174 480 185 548 q 117 411 163 411 q 75 450 75 411 q 130 533 75 489 q 301 578 185 578 q 435 551 387 578 q 497 489 482 524 q 513 383 513 454 l 513 159 q 521 58 513 80 q 556 35 529 35 q 612 102 601 35 m 415 339 l 341 309 q 166 130 166 238 q 189 61 166 87 q 247 35 211 35 q 321 56 279 35 q 415 119 363 77 l 415 339 z "},"b":{"ha":724,"x_min":18,"x_max":673,"o":"m 134 -22 l 107 -22 l 107 721 q 103 826 107 802 q 80 861 98 850 q 18 873 62 873 l 18 904 q 114 913 58 904 q 191 932 170 923 l 205 932 l 205 493 q 301 557 252 536 q 400 578 350 578 q 597 494 520 578 q 673 281 673 411 q 595 64 673 151 q 391 -22 516 -22 q 282 3 329 -22 q 205 80 236 29 q 134 -22 161 36 m 205 453 l 205 235 q 216 114 205 151 q 270 43 227 77 q 370 9 313 9 q 509 81 457 9 q 561 288 561 153 q 512 477 561 412 q 383 542 464 542 q 293 520 337 542 q 205 453 248 498 z "},"c":{"ha":593,"x_min":50,"x_max":561,"o":"m 531 136 l 561 136 q 330 -22 515 -22 q 131 58 212 -22 q 50 272 50 139 q 137 493 50 408 q 344 578 224 578 q 476 546 416 578 q 536 469 536 515 q 525 437 536 452 q 493 422 514 422 q 438 475 448 422 q 413 530 430 514 q 345 545 395 545 q 208 482 254 545 q 162 292 162 419 q 211 87 162 161 q 360 14 260 14 q 531 136 494 14 z "},"d":{"ha":724,"x_min":50,"x_max":711,"o":"m 522 496 l 522 713 q 519 825 522 802 q 500 861 517 848 q 439 873 483 873 l 425 873 l 425 904 q 605 932 507 906 l 619 932 l 619 186 q 623 68 619 89 q 644 37 626 47 q 711 26 662 26 l 711 -5 q 536 -22 612 -7 q 528 78 528 9 q 424 3 477 28 q 314 -22 371 -22 q 128 64 206 -22 q 50 275 50 151 q 130 494 50 410 q 320 578 210 578 q 427 557 376 578 q 522 496 477 537 m 522 457 q 432 515 477 496 q 341 534 387 534 q 213 475 264 534 q 162 283 162 416 q 215 83 162 147 q 345 18 267 18 q 440 43 396 18 q 522 116 484 67 l 522 457 z "},"e":{"ha":608,"x_min":52,"x_max":555,"o":"m 555 368 l 168 368 q 165 308 165 328 q 211 88 165 161 q 347 14 256 14 q 522 125 471 14 l 555 125 q 469 17 533 56 q 328 -22 404 -22 q 195 13 258 -22 q 92 114 132 49 q 52 272 52 179 q 130 491 52 404 q 323 578 207 578 q 492 511 432 578 q 555 368 551 445 m 436 395 q 438 422 438 410 q 403 515 438 482 q 317 548 368 548 q 170 395 194 548 l 436 395 z "},"f":{"ha":376,"x_min":20,"x_max":538,"o":"m 338 555 l 338 524 l 222 524 l 222 191 q 224 79 222 102 q 243 43 227 56 q 304 31 260 31 l 333 31 l 333 0 l 33 0 l 33 31 q 97 41 79 31 q 120 70 115 50 q 124 191 124 89 l 124 524 l 20 524 l 20 555 l 124 555 l 124 606 q 131 736 124 690 q 169 831 138 782 q 249 907 201 880 q 362 933 296 933 q 490 900 442 933 q 538 832 538 867 q 525 800 538 812 q 493 787 511 787 q 427 842 457 787 q 341 903 394 903 q 266 872 298 903 q 228 795 234 842 q 222 597 222 749 l 222 555 l 338 555 z "},"g":{"ha":651,"x_min":39,"x_max":661,"o":"m 476 507 q 593 572 534 572 q 643 554 625 572 q 661 515 661 536 q 621 471 661 471 q 582 498 598 471 q 551 524 567 524 q 494 489 525 524 q 529 371 529 433 q 471 227 529 290 q 274 159 412 164 q 130 101 130 155 q 163 66 130 76 q 297 50 195 55 q 469 29 409 44 q 566 -33 530 14 q 602 -142 602 -79 q 528 -287 602 -232 q 317 -342 455 -342 q 115 -293 191 -342 q 39 -170 39 -244 q 61 -102 39 -128 q 123 -75 83 -75 q 142 -79 134 -75 q 100 -176 100 -125 q 156 -275 100 -236 q 323 -314 212 -314 q 478 -274 422 -314 q 533 -173 533 -235 q 484 -77 533 -105 q 307 -45 434 -50 q 118 -9 161 -39 q 75 66 75 20 q 199 178 75 155 q 102 265 134 216 q 69 374 69 314 q 136 518 69 459 q 294 578 203 578 q 476 507 408 578 m 171 359 q 207 231 171 271 q 298 190 243 190 q 387 230 350 190 q 424 370 424 271 q 385 509 424 471 q 296 547 345 547 q 202 500 233 547 q 171 359 171 453 z "},"h":{"ha":738,"x_min":33,"x_max":708,"o":"m 227 464 q 318 549 267 521 q 429 578 368 578 q 542 549 497 578 q 601 479 587 521 q 614 344 614 437 l 614 191 q 618 72 614 93 q 640 41 622 51 q 708 31 659 31 l 708 0 l 421 0 l 421 31 l 434 31 q 498 45 484 31 q 515 79 513 60 q 517 191 517 98 l 517 357 q 509 460 517 427 q 471 515 501 493 q 395 536 441 536 q 300 506 342 536 q 227 413 258 475 l 227 191 q 230 75 227 97 q 250 42 233 54 q 315 31 268 31 l 315 0 l 33 0 l 33 31 l 47 31 q 110 45 96 31 q 127 78 125 59 q 130 191 130 98 l 130 744 q 114 850 130 828 q 37 873 98 873 l 37 904 q 212 932 142 904 l 227 932 l 227 464 z "},"i":{"ha":347,"x_min":22,"x_max":321,"o":"m 93 861 q 114 911 93 890 q 163 932 134 932 q 213 911 193 932 q 233 861 233 890 q 213 810 233 831 q 163 789 193 789 q 114 810 134 789 q 93 861 93 831 m 224 578 l 224 191 q 227 79 224 102 q 246 43 229 56 q 307 31 263 31 l 321 31 l 321 0 l 22 0 l 22 31 l 45 31 q 107 45 93 31 q 124 78 122 59 q 127 191 127 98 l 127 359 q 118 478 127 456 q 93 505 109 500 q 40 511 78 511 l 22 511 l 22 542 q 209 578 142 554 l 224 578 z "},"j":{"ha":347,"x_min":-152,"x_max":241,"o":"m 100 861 q 121 911 100 890 q 171 932 141 932 q 220 911 200 932 q 241 861 241 890 q 220 810 241 831 q 171 789 199 789 q 120 811 140 789 q 100 861 100 833 m 234 578 l 234 -19 q 227 -155 234 -108 q 191 -246 220 -203 q 111 -316 163 -290 q -6 -342 59 -342 q -110 -318 -68 -342 q -152 -258 -152 -294 q -139 -224 -152 -236 q -109 -213 -125 -213 q -59 -256 -79 -213 q 14 -312 -35 -312 q 89 -284 56 -312 q 130 -211 122 -256 q 137 -69 137 -167 l 137 359 q 131 468 137 441 q 110 502 125 494 q 51 511 94 511 l 34 511 l 34 542 q 219 578 153 554 l 234 578 z "},"k":{"ha":637,"x_min":18,"x_max":644,"o":"m 367 555 l 591 555 l 591 524 q 425 432 529 523 q 322 349 392 404 l 520 117 q 591 48 565 64 q 644 31 616 33 l 644 0 l 367 0 l 367 31 q 436 61 436 33 q 391 127 436 74 l 248 292 l 219 271 l 219 191 q 221 79 219 102 q 241 44 224 56 q 300 31 258 31 l 300 0 l 18 0 l 18 31 l 39 31 q 103 45 88 31 q 119 78 117 59 q 121 191 121 98 l 121 747 q 106 850 121 828 q 33 873 91 873 l 33 904 q 129 913 73 904 q 205 932 184 923 l 219 932 l 219 308 l 277 349 q 419 493 419 449 q 367 524 419 523 l 367 555 z "},"l":{"ha":333,"x_min":14,"x_max":311,"o":"m 213 932 l 213 191 q 215 79 213 102 q 235 43 218 56 q 295 31 252 31 l 311 31 l 311 0 l 14 0 l 14 31 l 33 31 q 91 42 74 31 q 112 74 109 54 q 115 191 115 94 l 115 740 q 100 850 115 827 q 24 873 84 873 l 24 904 q 121 913 65 904 q 198 932 177 923 l 213 932 z "},"m":{"ha":1114,"x_min":35,"x_max":1084,"o":"m 195 578 l 201 578 q 221 461 221 532 q 319 549 267 519 q 432 578 372 578 q 543 547 500 578 q 603 453 586 515 q 709 547 654 515 q 819 578 763 578 q 928 548 884 578 q 983 480 973 518 q 992 357 992 442 l 992 191 q 996 73 992 94 q 1018 41 1000 52 q 1084 31 1036 31 l 1084 0 l 807 0 l 807 31 q 869 41 851 31 q 891 71 887 51 q 895 191 895 91 l 895 376 q 889 460 895 432 q 855 509 882 489 q 785 530 828 530 q 696 500 741 530 q 607 410 652 470 l 607 191 q 609 79 607 102 q 628 44 612 56 q 688 31 645 31 l 688 0 l 419 0 l 419 31 q 483 41 465 31 q 505 70 500 50 q 509 191 509 90 l 509 345 q 504 451 509 418 q 469 507 498 484 q 396 530 439 530 q 310 503 354 530 q 221 422 267 476 l 221 191 q 224 77 221 99 q 244 43 227 54 q 307 31 262 31 l 307 0 l 35 0 l 35 31 q 98 41 80 31 q 120 71 116 51 q 124 191 124 90 l 124 357 q 121 473 124 452 q 100 505 118 494 q 35 516 82 516 l 35 547 q 195 578 132 557 z "},"n":{"ha":738,"x_min":39,"x_max":708,"o":"m 191 578 l 210 578 q 227 463 225 536 q 330 549 276 521 q 441 578 383 578 q 550 550 508 578 q 605 482 593 522 q 617 364 617 441 l 617 191 q 621 73 617 94 q 642 42 624 52 q 708 31 660 31 l 708 0 l 424 0 l 424 31 l 437 31 q 500 45 486 31 q 517 79 515 60 q 519 191 519 98 l 519 370 q 513 464 519 435 q 478 513 507 492 q 407 535 450 535 q 312 506 357 535 q 227 417 267 476 l 227 191 q 231 73 227 94 q 253 42 235 52 q 319 31 271 31 l 319 0 l 39 0 l 39 31 q 104 41 85 31 q 126 70 122 50 q 131 191 131 89 l 131 356 q 127 474 131 453 q 105 505 123 494 q 39 515 87 515 l 39 547 q 191 578 113 555 z "},"o":{"ha":694,"x_min":52,"x_max":644,"o":"m 52 279 q 137 492 52 406 q 347 578 222 578 q 558 492 473 578 q 644 279 644 406 q 557 58 644 138 q 347 -22 470 -22 q 138 59 224 -22 q 52 279 52 141 m 164 275 q 212 68 164 127 q 347 9 260 9 q 483 68 436 9 q 530 275 530 127 q 484 484 530 422 q 347 547 437 547 q 211 485 258 547 q 164 275 164 422 z "},"p":{"ha":724,"x_min":2,"x_max":669,"o":"m 172 578 l 190 578 q 201 486 201 540 q 295 555 245 532 q 400 578 345 578 q 592 497 515 578 q 669 283 669 416 q 592 65 669 153 q 389 -22 515 -22 q 291 -2 338 -22 q 201 60 243 19 l 201 -151 q 205 -269 201 -248 q 227 -300 209 -290 q 292 -311 244 -311 l 292 -342 l 2 -342 l 2 -311 l 22 -311 q 85 -297 71 -311 q 102 -263 100 -283 q 104 -151 104 -244 l 104 353 q 102 465 104 442 q 83 500 100 488 q 22 513 66 513 l 2 513 l 2 544 q 172 578 69 551 m 201 104 q 279 37 238 60 q 366 14 320 14 q 499 80 442 14 q 556 290 556 146 q 501 476 556 414 q 370 538 446 538 q 281 514 323 538 q 201 442 239 490 l 201 104 z "},"q":{"ha":724,"x_min":48,"x_max":713,"o":"m 593 578 l 616 578 l 616 -151 q 618 -263 616 -240 q 637 -298 621 -286 q 698 -311 654 -311 l 713 -311 l 713 -342 l 414 -342 l 414 -311 l 436 -311 q 494 -300 477 -311 q 515 -268 511 -289 q 518 -151 518 -248 l 518 47 q 419 -5 469 13 q 318 -22 370 -22 q 125 57 202 -22 q 48 269 48 136 q 134 493 48 408 q 328 578 220 578 q 421 560 373 578 q 518 505 469 542 q 593 578 555 530 m 518 463 q 436 518 478 500 q 349 536 393 536 q 216 476 272 536 q 161 262 161 416 q 209 76 161 138 q 341 13 256 13 q 431 30 387 13 q 518 79 475 46 l 518 463 z "},"r":{"ha":507,"x_min":43,"x_max":504,"o":"m 231 436 q 306 537 254 496 q 408 578 358 578 q 478 550 452 578 q 504 493 504 522 q 491 459 504 473 q 458 445 477 445 q 407 495 425 445 q 370 529 395 529 q 300 489 341 529 q 248 407 260 450 q 237 290 237 364 l 237 191 q 239 79 237 102 q 258 43 241 56 q 319 31 275 31 l 338 31 l 338 0 l 43 0 l 43 31 l 57 31 q 115 42 98 31 q 136 74 132 54 q 139 191 139 94 l 139 347 q 137 459 139 437 q 117 495 134 482 q 57 507 100 507 l 43 507 l 43 538 q 210 578 106 545 q 231 436 229 524 z "},"s":{"ha":463,"x_min":56,"x_max":417,"o":"m 56 -18 l 56 165 l 83 165 q 248 7 129 7 q 325 38 299 7 q 350 106 350 69 q 323 178 350 150 q 215 245 295 205 q 94 326 131 286 q 58 423 58 366 q 97 528 58 478 q 208 578 136 578 q 328 519 280 578 q 354 568 338 529 l 379 568 l 379 397 l 354 397 q 301 503 340 458 q 210 547 262 547 q 144 522 169 547 q 119 464 119 497 q 146 401 119 427 q 250 339 174 374 q 391 237 366 287 q 417 141 417 187 q 369 23 417 68 q 249 -22 321 -22 q 113 41 172 -22 q 83 -18 94 20 l 56 -18 z "},"t":{"ha":405,"x_min":36,"x_max":403,"o":"m 381 524 l 214 524 l 214 189 q 220 84 214 111 q 249 41 227 58 q 296 25 271 25 q 381 81 345 25 l 403 68 q 341 0 382 23 q 258 -22 300 -22 q 172 6 209 -22 q 126 74 135 35 q 117 210 117 113 l 117 524 l 36 524 l 36 555 q 136 602 92 557 q 192 730 180 648 l 214 730 l 214 555 l 381 555 l 381 524 z "},"u":{"ha":724,"x_min":31,"x_max":688,"o":"m 604 555 l 604 191 q 606 77 604 100 q 626 43 609 54 q 688 31 644 31 l 688 0 q 538 -22 585 -1 l 530 -22 q 507 107 508 16 q 412 10 465 43 q 294 -22 359 -22 q 196 3 239 -22 q 137 65 153 28 q 121 176 121 102 l 121 365 q 118 483 121 461 q 97 514 115 504 q 31 524 79 524 l 31 555 l 219 555 l 219 170 q 226 87 219 113 q 260 42 233 62 q 325 23 288 23 q 425 57 377 23 q 489 130 472 92 q 507 239 507 168 l 507 365 q 505 475 507 456 q 487 510 503 495 q 424 524 472 524 l 410 524 l 410 555 l 604 555 z "},"v":{"ha":637,"x_min":-1,"x_max":641,"o":"m 337 -22 l 298 -22 l 100 423 q 54 505 71 488 q -1 524 37 523 l -1 555 l 250 555 l 250 524 q 193 517 208 524 q 178 492 178 511 q 205 419 178 477 l 355 82 l 490 382 q 522 476 522 454 q 454 524 522 522 l 454 555 l 641 555 l 641 524 q 583 495 606 522 q 517 375 559 469 l 337 -22 z "},"w":{"ha":941,"x_min":2,"x_max":940,"o":"m 667 -22 l 636 -22 l 471 419 l 302 -22 l 272 -22 l 102 419 q 59 509 73 494 q 2 524 45 524 l 2 555 l 256 555 l 256 524 q 197 516 213 524 q 182 490 182 509 q 208 410 182 476 l 321 113 l 493 555 l 519 555 l 686 113 l 808 428 q 828 488 828 478 q 760 524 828 522 l 760 555 l 940 555 l 940 524 q 889 512 907 524 q 854 458 870 500 l 840 419 l 667 -22 z "},"x":{"ha":665,"x_min":18,"x_max":660,"o":"m 372 315 l 528 119 q 596 51 569 68 q 660 31 623 33 l 660 0 l 382 0 l 382 31 q 451 58 451 31 q 420 104 451 68 l 310 241 l 208 120 q 171 66 171 77 q 246 31 171 32 l 246 0 l 18 0 l 18 31 q 83 47 47 31 q 176 130 119 62 l 291 265 l 168 420 q 89 506 116 487 q 25 524 62 524 l 25 555 l 287 555 l 287 524 q 231 499 231 524 q 256 458 231 488 l 353 337 l 444 443 q 474 488 474 479 q 399 524 474 524 l 399 555 l 620 555 l 620 524 q 482 441 553 522 l 372 315 z "},"y":{"ha":637,"x_min":-7,"x_max":637,"o":"m 360 105 l 489 414 q 517 489 517 481 q 441 524 517 523 l 441 555 l 637 555 l 637 524 q 570 500 591 522 q 518 403 549 478 l 271 -195 q 208 -311 235 -280 q 149 -342 181 -342 q 104 -302 104 -342 q 175 -224 104 -256 q 230 -193 216 -205 q 258 -146 244 -180 l 311 -14 l 102 434 q 56 509 74 493 q -7 524 37 524 l -7 555 l 248 555 l 248 524 q 181 496 181 522 q 208 430 181 486 l 360 105 z "},"z":{"ha":593,"x_min":36,"x_max":536,"o":"m 36 0 l 36 21 l 404 524 l 202 524 q 150 519 163 524 q 116 487 136 514 q 77 401 97 459 l 52 401 l 61 555 l 526 555 l 526 531 l 160 31 l 312 31 q 411 39 386 31 q 460 80 436 47 q 509 177 485 112 l 536 177 l 520 0 l 36 0 z "},"{":{"ha":665,"x_min":142,"x_max":521,"o":"m 142 286 l 142 313 q 254 365 211 324 q 296 456 296 405 q 280 560 296 492 q 264 670 264 623 q 339 847 264 771 q 521 937 413 923 l 521 911 q 402 851 441 899 q 363 747 363 803 q 376 645 363 705 q 390 529 390 573 q 334 389 390 448 q 198 301 279 331 q 339 205 288 267 q 391 70 391 143 q 376 -44 391 28 q 363 -146 363 -105 q 521 -314 363 -275 l 521 -338 q 339 -248 412 -326 q 266 -73 266 -170 q 280 35 266 -26 q 297 139 297 106 q 259 230 297 188 q 142 286 221 273 z "},"|":{"ha":709,"x_min":317,"x_max":391,"o":"m 317 932 l 391 932 l 391 -342 l 317 -342 l 317 932 z "},"}":{"ha":665,"x_min":144,"x_max":523,"o":"m 523 313 l 523 286 q 412 235 456 275 q 369 142 369 194 q 385 39 369 107 q 401 -71 401 -24 q 326 -249 401 -172 q 144 -338 252 -325 l 144 -312 q 263 -252 224 -300 q 302 -149 302 -204 q 290 -46 302 -106 q 275 70 275 26 q 331 210 275 151 q 467 298 387 269 q 327 393 378 331 q 275 529 275 455 q 290 643 275 570 q 302 745 302 704 q 144 913 302 874 l 144 937 q 326 846 253 924 q 399 671 399 769 q 385 564 399 625 q 368 460 368 493 q 406 369 368 411 q 523 313 444 326 z "},"~":{"ha":926,"x_min":100,"x_max":827,"o":"m 794 541 l 827 541 q 777 399 825 452 q 657 346 728 346 q 583 358 622 346 q 404 428 544 370 q 255 471 300 471 q 132 347 155 471 l 100 347 q 153 494 103 446 q 262 543 202 543 q 521 460 328 543 q 669 416 624 416 q 758 451 727 416 q 794 541 789 487 z "}," ":{"ha":347,"x_min":0,"x_max":0,"o":""},"¡":{"ha":347,"x_min":97,"x_max":243,"o":"m 97 547 q 118 598 97 576 q 170 619 140 619 q 221 598 200 619 q 243 547 243 576 q 221 495 243 516 q 170 474 199 474 q 118 495 140 474 q 97 547 97 517 m 155 336 l 184 336 l 224 -145 q 229 -229 229 -212 q 211 -291 229 -269 q 169 -313 193 -313 q 127 -291 145 -313 q 109 -229 109 -269 q 115 -145 109 -204 l 155 336 z "},"¢":{"ha":593,"x_min":50,"x_max":561,"o":"m 206 5 l 113 -260 l 83 -260 l 181 18 q 84 123 119 56 q 50 271 50 191 q 137 493 50 408 q 344 577 224 577 q 377 575 357 577 l 471 843 l 501 843 l 405 570 q 502 529 467 557 q 536 469 536 502 q 525 437 536 452 q 493 422 513 422 q 438 475 448 422 q 393 538 427 529 l 227 66 q 361 14 275 14 q 531 136 494 14 l 561 136 q 330 -22 515 -22 q 206 5 264 -22 m 366 544 q 344 545 355 545 q 208 482 253 545 q 162 292 162 418 q 206 94 162 169 l 366 544 z "},"£":{"ha":984,"x_min":37,"x_max":968,"o":"m 271 165 l 295 249 q 527 795 408 654 q 790 937 645 937 q 918 906 869 937 q 968 837 968 876 q 932 797 968 797 q 881 838 907 797 q 764 903 840 903 q 653 861 708 903 q 569 751 599 819 q 500 550 540 683 q 366 165 434 326 l 619 165 l 608 134 l 353 134 q 241 -81 320 57 q 278 -68 258 -72 q 319 -64 297 -64 q 507 -157 410 -64 q 593 -227 563 -210 q 660 -245 623 -245 q 755 -210 712 -245 q 799 -122 799 -174 q 774 -48 799 -90 q 762 -12 762 -28 q 774 15 762 4 q 802 26 787 26 q 844 1 828 26 q 860 -63 860 -24 q 779 -233 860 -157 q 606 -309 698 -309 q 396 -195 506 -309 q 261 -108 313 -108 q 240 -111 251 -108 q 218 -121 229 -114 q 201 -155 214 -127 q 74 -311 127 -311 q 37 -275 37 -311 q 82 -187 37 -237 q 191 -98 128 -138 q 262 134 211 -45 l 43 134 l 54 165 l 271 165 z "},"¤":{"ha":926,"x_min":139,"x_max":787,"o":"m 139 717 l 189 768 l 276 682 q 363 732 317 715 q 463 748 410 748 q 651 682 567 748 l 737 768 l 787 717 l 701 631 q 767 439 767 545 q 701 257 767 335 l 787 172 l 737 121 l 651 206 q 562 157 609 174 q 463 141 515 141 q 276 206 355 141 l 190 121 l 139 172 l 226 257 q 161 449 161 352 q 226 631 161 544 l 139 717 m 695 444 q 627 608 695 540 q 464 675 559 675 q 301 607 369 675 q 233 444 233 539 q 300 280 233 348 q 464 212 368 212 q 627 280 559 212 q 695 444 695 349 z "},"¥":{"ha":846,"x_min":0,"x_max":846,"o":"m 505 402 l 763 402 l 763 362 l 488 362 l 482 340 l 482 205 l 763 205 l 763 166 l 482 166 q 504 54 484 77 q 599 31 524 31 l 599 0 l 246 0 l 246 31 l 260 31 q 344 56 325 31 q 364 166 363 80 l 83 166 l 83 205 l 364 205 l 364 340 l 353 362 l 83 362 l 83 402 l 332 402 l 158 729 q 80 860 103 831 q 0 888 57 888 l 0 920 l 336 920 l 336 888 q 242 842 242 888 q 273 765 242 822 l 471 402 l 633 707 q 674 812 674 782 q 576 888 674 888 l 576 920 l 846 920 l 846 888 q 756 842 791 880 q 668 705 722 804 l 505 402 z "},"¦":{"ha":709,"x_min":317,"x_max":391,"o":"m 317 932 l 391 932 l 391 444 l 317 444 l 317 932 m 317 147 l 391 147 l 391 -342 l 317 -342 l 317 147 z "},"§":{"ha":550,"x_min":46,"x_max":497,"o":"m 252 492 q 217 526 250 496 q 89 747 89 644 q 137 865 89 811 q 275 920 184 920 q 407 878 359 920 q 454 792 454 837 q 414 746 454 746 q 365 807 368 746 q 269 890 361 890 q 182 861 216 890 q 148 785 148 833 q 296 578 148 706 q 416 467 380 505 q 474 379 451 430 q 497 279 497 329 q 443 139 497 188 q 323 91 389 91 q 300 93 312 91 q 428 -45 400 7 q 455 -151 455 -98 q 404 -285 455 -237 q 269 -333 353 -333 q 143 -294 189 -333 q 96 -208 96 -255 q 138 -157 96 -157 q 182 -218 174 -157 q 275 -304 193 -304 q 360 -277 324 -304 q 396 -197 396 -249 q 359 -94 396 -140 q 232 25 323 -48 q 79 189 113 121 q 46 315 46 256 q 96 443 46 391 q 222 496 146 496 q 252 492 237 496 m 101 360 q 147 239 101 300 q 231 149 193 178 q 320 119 270 119 q 412 151 377 119 q 446 229 446 184 q 405 340 446 282 q 318 432 363 399 q 228 466 273 466 q 136 435 170 466 q 101 360 101 405 z "},"¨":{"ha":463,"x_min":52,"x_max":412,"o":"m 52 802 q 67 840 52 823 q 107 857 83 857 q 146 841 130 857 q 163 802 163 825 q 146 762 163 779 q 107 746 130 746 q 68 763 84 746 q 52 802 52 779 m 300 802 q 317 841 300 825 q 356 857 333 857 q 395 841 379 857 q 412 802 412 825 q 395 763 412 779 q 356 746 378 746 q 317 762 333 746 q 300 802 300 779 z "},"©":{"ha":1056,"x_min":47,"x_max":1009,"o":"m 528 937 q 765 874 652 937 q 943 699 878 812 q 1009 456 1009 585 q 868 116 1009 256 q 528 -25 727 -25 q 188 116 330 -25 q 47 456 47 258 q 188 796 47 655 q 528 937 330 937 m 528 895 q 218 767 347 895 q 89 456 89 638 q 217 145 89 274 q 528 16 346 16 q 838 145 709 16 q 967 456 967 275 q 907 677 967 574 q 744 838 847 781 q 528 895 642 895 m 766 765 l 779 575 l 753 575 q 549 735 704 735 q 389 665 448 735 q 330 470 330 594 q 390 261 330 331 q 555 191 450 191 q 766 301 686 191 l 791 288 q 528 151 701 151 q 305 239 393 151 q 217 452 217 328 q 312 673 217 581 q 555 765 408 765 q 680 740 604 765 q 705 734 697 734 q 739 765 728 734 l 766 765 z "},"ª":{"ha":420,"x_min":33,"x_max":412,"o":"m 396 652 l 412 652 q 339 582 408 582 q 291 596 309 582 q 269 640 273 611 q 188 596 224 611 q 123 581 152 581 q 60 601 87 581 q 33 653 33 620 q 71 721 33 690 q 200 787 109 752 l 269 813 l 269 829 q 252 897 269 876 q 185 919 235 919 q 111 878 119 919 q 75 837 104 837 q 47 861 47 837 q 86 911 47 886 q 193 937 124 937 q 280 921 249 937 q 322 883 312 905 q 332 820 332 862 l 332 685 q 337 625 332 639 q 360 612 342 612 q 396 652 389 612 m 269 793 l 220 776 q 106 669 106 733 q 120 626 106 640 q 159 611 133 611 q 207 624 179 611 q 269 662 234 637 l 269 793 z "},"«":{"ha":651,"x_min":45,"x_max":623,"o":"m 45 296 l 297 555 l 336 555 l 177 296 l 336 31 l 297 31 l 45 296 m 336 296 l 587 555 l 623 555 l 467 296 l 623 31 l 587 31 l 336 296 z "},"¬":{"ha":926,"x_min":96,"x_max":829,"o":"m 96 646 l 829 646 l 829 242 l 757 242 l 757 573 l 96 573 l 96 646 z "},"®":{"ha":1056,"x_min":47,"x_max":1009,"o":"m 528 937 q 765 874 652 937 q 943 699 878 812 q 1009 456 1009 585 q 868 116 1009 256 q 528 -25 727 -25 q 188 116 330 -25 q 47 456 47 258 q 188 796 47 655 q 528 937 330 937 m 528 895 q 218 767 347 895 q 89 456 89 638 q 217 145 89 274 q 528 16 346 16 q 838 145 709 16 q 967 456 967 275 q 907 677 967 574 q 744 838 847 781 q 528 895 642 895 m 274 751 l 536 751 q 683 709 628 751 q 738 600 738 667 q 700 506 738 544 q 587 449 663 469 l 728 247 q 769 201 752 214 q 810 187 786 189 l 810 164 l 686 164 l 486 439 l 435 439 l 435 230 q 451 200 438 212 q 515 187 463 187 l 515 164 l 266 164 l 266 187 q 314 196 299 187 q 333 218 329 205 q 336 281 336 232 l 336 635 q 334 696 336 684 q 318 718 331 708 q 274 727 305 727 l 274 751 m 435 469 l 455 469 q 584 502 541 469 q 628 591 628 535 q 589 684 628 646 q 493 722 551 722 q 435 711 464 722 l 435 469 z "},"¯":{"ha":694,"x_min":-8,"x_max":703,"o":"m -8 1093 l 703 1093 l 703 1024 l -8 1024 l -8 1093 z "},"°":{"ha":550,"x_min":66,"x_max":484,"o":"m 275 912 q 422 851 361 912 q 484 704 484 790 q 422 557 484 618 q 275 496 361 496 q 127 557 189 496 q 66 704 66 618 q 129 853 66 793 q 275 912 191 912 m 275 856 q 169 813 214 856 q 123 705 123 770 q 168 597 123 642 q 275 553 212 553 q 382 598 338 553 q 426 705 426 642 q 381 811 426 767 q 275 856 336 856 z "},"±":{"ha":926,"x_min":96,"x_max":830,"o":"m 96 566 l 425 566 l 425 897 l 498 897 l 498 566 l 830 566 l 830 493 l 498 493 l 498 164 l 425 164 l 425 493 l 96 493 l 96 566 m 96 73 l 830 73 l 830 0 l 96 0 l 96 73 z "},"²":{"ha":420,"x_min":43,"x_max":373,"o":"m 43 437 l 43 465 q 290 774 290 649 q 265 857 290 829 q 189 884 240 884 q 125 860 148 884 q 102 808 102 836 q 137 755 102 774 q 146 745 146 750 q 131 725 146 738 q 102 712 116 712 q 65 737 83 712 q 48 791 48 762 q 97 877 48 843 q 208 911 145 911 q 324 876 275 911 q 373 777 373 840 q 318 661 373 723 q 120 488 264 599 l 368 488 l 342 401 l 309 401 q 312 426 312 422 q 287 437 312 437 l 43 437 z "},"³":{"ha":420,"x_min":51,"x_max":375,"o":"m 238 701 q 339 665 304 701 q 375 574 375 628 q 323 468 375 510 q 188 426 271 426 q 91 449 131 426 q 51 496 51 472 q 85 524 51 524 q 123 493 113 524 q 187 450 139 450 q 266 482 240 450 q 292 577 292 514 q 271 652 292 627 q 222 677 250 677 q 174 656 197 677 q 149 644 159 644 q 129 659 129 644 q 176 696 129 669 q 255 755 236 731 q 274 815 274 779 q 257 868 274 850 q 204 885 239 885 q 147 867 173 885 q 121 819 121 850 q 141 778 121 793 q 149 769 149 772 q 134 756 149 764 q 108 749 119 749 q 79 767 92 749 q 66 806 66 784 q 105 878 66 844 q 215 911 144 911 q 318 885 279 911 q 357 822 357 859 q 275 723 357 770 l 238 701 z "},"´":{"ha":463,"x_min":115,"x_max":348,"o":"m 138 680 l 115 680 l 217 838 q 266 903 248 886 q 307 920 284 920 q 337 908 326 920 q 348 882 348 896 q 333 847 348 864 q 241 765 319 830 l 138 680 z "},"µ":{"ha":694,"x_min":38,"x_max":689,"o":"m 80 555 l 191 555 l 191 260 q 213 104 191 144 q 288 64 235 64 q 368 87 328 64 q 448 155 408 110 l 448 555 l 559 555 l 559 178 l 559 162 l 558 141 q 572 77 558 99 q 606 54 585 54 q 661 138 648 54 l 689 138 q 555 -19 677 -19 q 478 13 505 -19 q 448 110 452 45 q 342 13 395 45 q 233 -19 288 -19 q 175 -6 198 -19 q 130 39 153 7 q 129 -18 129 3 q 152 -197 129 -87 q 161 -267 161 -238 q 144 -319 161 -296 q 97 -342 127 -342 q 53 -320 68 -342 q 38 -267 38 -298 q 58 -156 38 -237 q 77 -57 73 -94 q 80 129 80 -19 l 80 555 z "},"¶":{"ha":622,"x_min":-9,"x_max":631,"o":"m 541 882 l 541 -342 l 492 -342 l 492 882 l 366 882 l 366 -342 l 316 -342 l 316 408 q -9 665 -9 412 q 28 801 -9 743 q 131 889 66 859 q 296 920 197 920 l 631 920 l 631 882 l 541 882 z "},"·":{"ha":463,"x_min":353,"x_max":465,"o":"m 353 467 q 369 506 353 489 q 409 523 385 523 q 448 506 432 523 q 465 467 465 490 q 448 426 465 443 q 409 410 432 410 q 370 427 386 410 q 353 467 353 444 z "},"¸":{"ha":463,"x_min":77,"x_max":361,"o":"m 237 10 l 222 -81 q 325 -114 288 -81 q 361 -195 361 -147 q 311 -293 361 -257 q 183 -328 260 -328 q 77 -311 123 -328 l 87 -284 q 168 -297 127 -297 q 249 -275 218 -297 q 279 -216 279 -254 q 253 -160 279 -182 q 179 -137 227 -137 l 208 10 l 237 10 z "},"¹":{"ha":420,"x_min":114,"x_max":314,"o":"m 250 911 l 250 539 q 255 471 250 481 q 290 462 260 462 l 314 462 l 314 437 l 118 437 l 118 462 l 140 462 q 175 471 170 462 q 180 539 180 481 l 180 785 q 175 852 180 843 q 140 862 170 862 l 114 862 l 114 887 q 182 895 152 888 q 216 907 213 901 q 221 911 217 911 l 250 911 z "},"º":{"ha":448,"x_min":33,"x_max":417,"o":"m 33 758 q 88 885 33 833 q 225 937 143 937 q 364 883 311 937 q 417 758 417 829 q 362 627 417 677 q 225 577 307 577 q 89 626 144 577 q 33 758 33 675 m 106 755 q 135 633 106 670 q 225 595 165 595 q 315 633 286 595 q 344 755 344 671 q 314 878 344 837 q 225 918 285 918 q 136 878 165 918 q 106 755 106 837 z "},"»":{"ha":651,"x_min":33,"x_max":611,"o":"m 611 296 l 359 31 l 321 31 l 479 296 l 321 555 l 359 555 l 611 296 m 321 296 l 69 31 l 33 31 l 190 296 l 33 555 l 69 555 l 321 296 z "},"¼":{"ha":1215,"x_min":141,"x_max":1175,"o":"m 392 0 l 351 0 l 823 888 l 864 888 l 392 0 m 277 911 l 277 539 q 282 471 277 481 q 317 462 288 462 l 341 462 l 341 437 l 145 437 l 145 462 l 167 462 q 202 471 197 462 q 207 539 207 481 l 207 785 q 202 852 207 843 q 167 862 197 862 l 141 862 l 141 887 q 210 895 179 888 q 243 907 240 901 q 248 911 244 911 l 277 911 m 987 157 l 791 157 l 791 182 l 1023 474 l 1061 474 l 1061 186 l 1090 186 q 1125 189 1122 186 q 1141 219 1128 191 l 1175 219 l 1164 157 l 1061 157 l 1061 102 q 1066 35 1061 44 q 1101 25 1071 25 l 1116 25 l 1116 1 l 925 1 l 925 25 l 947 25 q 983 35 978 25 q 987 102 987 44 l 987 157 m 987 186 l 987 380 l 833 186 l 987 186 z "},"½":{"ha":1215,"x_min":141,"x_max":1141,"o":"m 392 0 l 351 0 l 823 888 l 864 888 l 392 0 m 277 911 l 277 539 q 282 471 277 481 q 317 462 288 462 l 341 462 l 341 437 l 145 437 l 145 462 l 167 462 q 202 471 197 462 q 207 539 207 481 l 207 785 q 202 852 207 843 q 167 862 197 862 l 141 862 l 141 887 q 210 895 179 888 q 243 907 240 901 q 248 911 244 911 l 277 911 m 811 1 l 811 28 q 1058 338 1058 212 q 1033 420 1058 393 q 957 447 1008 447 q 893 423 916 447 q 870 371 870 399 q 905 319 870 337 q 914 308 914 313 q 899 288 914 301 q 870 275 884 275 q 833 300 850 275 q 816 355 816 325 q 864 440 816 406 q 976 474 913 474 q 1092 439 1043 474 q 1141 340 1141 404 q 1086 224 1141 286 q 888 51 1031 162 l 1136 51 l 1110 -35 l 1076 -35 q 1080 -11 1080 -15 q 1055 1 1080 1 l 811 1 z "},"¾":{"ha":1215,"x_min":78,"x_max":1175,"o":"m 392 0 l 351 0 l 823 888 l 864 888 l 392 0 m 265 701 q 367 665 331 701 q 402 574 402 628 q 350 468 402 510 q 215 426 298 426 q 118 449 158 426 q 78 496 78 472 q 112 524 78 524 q 151 493 140 524 q 214 450 166 450 q 293 482 267 450 q 319 577 319 514 q 298 652 319 627 q 249 677 277 677 q 201 656 224 677 q 176 644 186 644 q 156 659 156 644 q 203 696 156 669 q 282 755 263 731 q 301 815 301 779 q 284 868 301 850 q 231 885 267 885 q 174 867 200 885 q 149 819 149 850 q 168 778 149 793 q 176 769 176 772 q 161 756 176 764 q 135 749 146 749 q 106 767 119 749 q 93 806 93 784 q 132 878 93 844 q 242 911 172 911 q 345 885 307 911 q 384 822 384 859 q 302 723 384 770 l 265 701 m 987 157 l 791 157 l 791 182 l 1023 474 l 1061 474 l 1061 186 l 1090 186 q 1125 189 1122 186 q 1141 219 1128 191 l 1175 219 l 1164 157 l 1061 157 l 1061 102 q 1066 35 1061 44 q 1101 25 1071 25 l 1116 25 l 1116 1 l 925 1 l 925 25 l 947 25 q 983 35 978 25 q 987 102 987 44 l 987 157 m 987 186 l 987 380 l 833 186 l 987 186 z "},"¿":{"ha":550,"x_min":69,"x_max":485,"o":"m 290 542 q 312 593 290 572 q 363 614 333 614 q 415 593 393 614 q 436 542 436 572 q 414 490 436 511 q 363 469 393 469 q 312 490 333 469 q 290 542 290 511 m 353 336 l 382 336 l 382 51 l 353 51 q 279 102 325 102 q 200 50 227 102 q 174 -105 174 -1 q 216 -245 174 -201 q 312 -289 258 -289 q 409 -222 378 -289 q 453 -187 425 -187 q 485 -222 485 -187 q 431 -289 485 -259 q 307 -318 378 -318 q 131 -242 192 -318 q 69 -65 69 -165 q 122 83 69 25 q 252 142 176 142 q 353 104 313 142 l 353 336 z "},"À":{"ha":941,"x_min":1,"x_max":949,"o":"m 600 339 l 250 339 l 227 281 q 174 115 174 154 q 202 53 174 74 q 274 31 230 31 l 274 0 l 1 0 l 1 31 q 92 74 62 41 q 163 216 121 108 q 196 294 167 226 l 463 932 l 490 932 l 797 202 l 839 106 q 877 55 853 73 q 949 31 901 36 l 949 0 l 588 0 l 588 31 q 678 41 654 31 q 701 80 701 51 q 670 169 701 95 l 600 339 m 588 370 l 425 762 l 263 370 l 588 370 m 536 1000 l 433 1085 q 342 1165 359 1147 q 326 1202 326 1184 q 368 1240 326 1240 q 408 1223 390 1240 q 457 1158 425 1207 l 559 1000 l 536 1000 z "},"Á":{"ha":941,"x_min":1,"x_max":949,"o":"m 600 339 l 250 339 l 227 281 q 174 115 174 154 q 202 53 174 74 q 274 31 230 31 l 274 0 l 1 0 l 1 31 q 92 74 62 41 q 163 216 121 108 q 196 294 167 226 l 463 932 l 490 932 l 797 202 l 839 106 q 877 55 853 73 q 949 31 901 36 l 949 0 l 588 0 l 588 31 q 678 41 654 31 q 701 80 701 51 q 670 169 701 95 l 600 339 m 588 370 l 425 762 l 263 370 l 588 370 m 414 1000 l 391 1000 l 493 1158 q 542 1223 524 1206 q 583 1240 560 1240 q 613 1228 602 1240 q 624 1202 624 1216 q 609 1167 624 1184 q 517 1085 595 1150 l 414 1000 z "},"Â":{"ha":941,"x_min":1,"x_max":949,"o":"m 600 339 l 250 339 l 227 281 q 174 115 174 154 q 202 53 174 74 q 274 31 230 31 l 274 0 l 1 0 l 1 31 q 92 74 62 41 q 163 216 121 108 q 196 294 167 226 l 463 932 l 490 932 l 797 202 l 839 106 q 877 55 853 73 q 949 31 901 36 l 949 0 l 588 0 l 588 31 q 678 41 654 31 q 701 80 701 51 q 670 169 701 95 l 600 339 m 588 370 l 425 762 l 263 370 l 588 370 m 439 1236 l 507 1236 l 614 1046 q 631 1010 631 1017 q 623 1001 631 1001 q 591 1024 615 1001 l 459 1147 l 353 1021 q 328 998 334 998 q 320 1008 320 998 q 333 1040 320 1016 l 439 1236 z "},"Ã":{"ha":941,"x_min":1,"x_max":949,"o":"m 600 339 l 250 339 l 227 281 q 174 115 174 154 q 202 53 174 74 q 274 31 230 31 l 274 0 l 1 0 l 1 31 q 92 74 62 41 q 163 216 121 108 q 196 294 167 226 l 463 932 l 490 932 l 797 202 l 839 106 q 877 55 853 73 q 949 31 901 36 l 949 0 l 588 0 l 588 31 q 678 41 654 31 q 701 80 701 51 q 670 169 701 95 l 600 339 m 588 370 l 425 762 l 263 370 l 588 370 m 288 972 l 267 972 q 305 1092 267 1053 q 396 1132 343 1132 q 505 1084 443 1132 q 594 1037 567 1037 q 663 1132 660 1037 l 683 1132 q 644 1009 683 1046 q 553 972 605 972 q 494 985 520 972 q 424 1031 468 998 q 355 1067 378 1067 q 288 972 294 1067 z "},"Ä":{"ha":941,"x_min":1,"x_max":949,"o":"m 600 339 l 250 339 l 227 281 q 174 115 174 154 q 202 53 174 74 q 274 31 230 31 l 274 0 l 1 0 l 1 31 q 92 74 62 41 q 163 216 121 108 q 196 294 167 226 l 463 932 l 490 932 l 797 202 l 839 106 q 877 55 853 73 q 949 31 901 36 l 949 0 l 588 0 l 588 31 q 678 41 654 31 q 701 80 701 51 q 670 169 701 95 l 600 339 m 588 370 l 425 762 l 263 370 l 588 370 m 295 1043 q 311 1082 295 1065 q 351 1099 326 1099 q 390 1082 374 1099 q 406 1043 406 1066 q 390 1004 406 1020 q 351 987 374 987 q 311 1004 328 987 q 295 1043 295 1021 m 544 1043 q 560 1082 544 1066 q 600 1099 576 1099 q 639 1082 623 1099 q 655 1043 655 1066 q 638 1004 655 1021 q 600 987 622 987 q 560 1004 576 987 q 544 1043 544 1020 z "},"Å":{"ha":941,"x_min":1,"x_max":949,"o":"m 450 900 q 374 947 402 911 q 346 1027 346 983 q 384 1118 346 1080 q 475 1156 421 1156 q 567 1118 529 1156 q 604 1027 604 1080 q 577 947 604 983 q 503 901 549 911 l 797 202 l 839 106 q 877 55 853 73 q 949 31 901 36 l 949 0 l 588 0 l 588 31 q 678 41 654 31 q 701 80 701 51 q 670 169 701 95 l 600 339 l 250 339 l 227 281 q 174 115 174 154 q 202 53 174 74 q 274 31 230 31 l 274 0 l 1 0 l 1 31 q 92 74 62 41 q 163 216 121 108 q 196 294 167 225 l 450 900 m 381 1027 q 408 961 381 989 q 475 932 435 932 q 542 960 514 932 q 569 1027 569 988 q 542 1093 569 1065 q 475 1121 514 1121 q 409 1093 436 1121 q 381 1027 381 1065 m 588 370 l 425 762 l 263 370 l 588 370 z "},"Æ":{"ha":1230,"x_min":0,"x_max":1185,"o":"m 555 450 l 335 450 l 217 210 q 180 106 180 135 q 290 31 180 34 l 290 0 l 0 0 l 0 31 q 191 230 100 45 l 448 754 q 490 855 490 842 q 471 882 490 875 q 388 888 452 888 l 367 888 l 367 920 l 1086 920 l 1109 692 l 1077 692 q 1038 801 1065 749 q 976 870 1011 852 q 861 888 940 888 l 687 888 l 687 481 l 791 481 q 870 491 847 481 q 904 531 892 501 q 915 624 915 561 l 946 624 l 946 309 l 915 309 q 892 423 915 396 q 794 450 870 450 l 687 450 l 687 235 q 693 89 687 119 q 723 45 699 60 q 825 31 746 31 l 887 31 q 1021 50 978 31 q 1102 134 1065 69 q 1156 279 1140 198 l 1185 279 l 1175 0 l 417 0 l 417 31 l 437 31 q 519 46 496 31 q 548 93 542 61 q 555 239 555 124 l 555 450 m 555 481 l 555 895 l 351 481 l 555 481 z "},"Ç":{"ha":998,"x_min":71,"x_max":907,"o":"m 511 -17 q 200 108 328 -17 q 71 444 71 233 q 130 700 71 579 q 292 878 188 820 q 522 937 397 937 q 708 894 625 937 q 833 800 792 852 q 869 920 863 858 l 899 920 l 907 571 l 878 571 q 753 829 847 757 q 541 902 659 902 q 312 785 397 902 q 227 449 227 667 q 319 132 227 242 q 551 22 412 22 q 702 58 625 22 q 824 179 779 94 q 878 345 869 265 l 907 345 l 907 23 l 878 23 q 833 120 865 78 q 543 -17 718 -10 l 536 -92 q 637 -121 593 -92 q 681 -205 681 -150 q 631 -293 681 -260 q 509 -327 582 -327 q 385 -300 437 -327 l 397 -271 q 488 -295 445 -295 q 558 -273 530 -295 q 587 -213 587 -252 q 563 -159 587 -178 q 507 -140 539 -140 q 493 -140 503 -140 l 511 -17 z "},"È":{"ha":868,"x_min":44,"x_max":825,"o":"m 793 286 l 825 286 l 806 0 l 44 0 l 44 31 l 63 31 q 152 50 132 31 q 177 96 172 68 q 182 239 182 124 l 182 690 q 177 829 182 795 q 150 875 171 862 q 63 888 130 888 l 63 920 l 720 920 l 742 690 l 710 690 q 657 827 688 787 q 582 878 625 867 q 442 888 538 888 l 315 888 l 315 503 l 412 503 q 506 514 479 503 q 542 549 533 526 q 550 640 550 572 l 582 640 l 582 326 l 550 326 q 537 428 550 402 q 499 462 524 454 q 416 470 475 470 l 315 470 l 315 252 q 336 60 315 89 q 449 31 357 31 l 517 31 q 637 50 590 31 q 726 126 684 68 q 793 286 768 184 m 479 1000 l 376 1085 q 286 1165 302 1147 q 269 1202 269 1184 q 311 1240 269 1240 q 351 1223 333 1240 q 400 1158 368 1207 l 502 1000 l 479 1000 z "},"É":{"ha":868,"x_min":44,"x_max":825,"o":"m 793 286 l 825 286 l 806 0 l 44 0 l 44 31 l 63 31 q 152 50 132 31 q 177 96 172 68 q 182 239 182 124 l 182 690 q 177 829 182 795 q 150 875 171 862 q 63 888 130 888 l 63 920 l 720 920 l 742 690 l 710 690 q 657 827 688 787 q 582 878 625 867 q 442 888 538 888 l 315 888 l 315 503 l 412 503 q 506 514 479 503 q 542 549 533 526 q 550 640 550 572 l 582 640 l 582 326 l 550 326 q 537 428 550 402 q 499 462 524 454 q 416 470 475 470 l 315 470 l 315 252 q 336 60 315 89 q 449 31 357 31 l 517 31 q 637 50 590 31 q 726 126 684 68 q 793 286 768 184 m 366 1000 l 343 1000 l 445 1158 q 494 1223 476 1206 q 534 1240 512 1240 q 565 1228 554 1240 q 576 1202 576 1216 q 561 1167 576 1184 q 469 1085 547 1150 l 366 1000 z "},"Ê":{"ha":868,"x_min":44,"x_max":825,"o":"m 793 286 l 825 286 l 806 0 l 44 0 l 44 31 l 63 31 q 152 50 132 31 q 177 96 172 68 q 182 239 182 124 l 182 690 q 177 829 182 795 q 150 875 171 862 q 63 888 130 888 l 63 920 l 720 920 l 742 690 l 710 690 q 657 827 688 787 q 582 878 625 867 q 442 888 538 888 l 315 888 l 315 503 l 412 503 q 506 514 479 503 q 542 549 533 526 q 550 640 550 572 l 582 640 l 582 326 l 550 326 q 537 428 550 402 q 499 462 524 454 q 416 470 475 470 l 315 470 l 315 252 q 336 60 315 89 q 449 31 357 31 l 517 31 q 637 50 590 31 q 726 126 684 68 q 793 286 768 184 m 398 1237 l 467 1237 l 573 1047 q 590 1010 590 1017 q 583 1002 590 1002 q 551 1025 574 1002 l 418 1147 l 313 1021 q 287 999 294 999 q 279 1009 279 999 q 292 1041 279 1017 l 398 1237 z "},"Ë":{"ha":868,"x_min":44,"x_max":825,"o":"m 793 286 l 825 286 l 806 0 l 44 0 l 44 31 l 63 31 q 152 50 132 31 q 177 96 172 68 q 182 239 182 124 l 182 690 q 177 829 182 795 q 150 875 171 862 q 63 888 130 888 l 63 920 l 720 920 l 742 690 l 710 690 q 657 827 688 787 q 582 878 625 867 q 442 888 538 888 l 315 888 l 315 503 l 412 503 q 506 514 479 503 q 542 549 533 526 q 550 640 550 572 l 582 640 l 582 326 l 550 326 q 537 428 550 402 q 499 462 524 454 q 416 470 475 470 l 315 470 l 315 252 q 336 60 315 89 q 449 31 357 31 l 517 31 q 637 50 590 31 q 726 126 684 68 q 793 286 768 184 m 254 1043 q 270 1082 254 1065 q 310 1099 286 1099 q 349 1082 333 1099 q 366 1043 366 1066 q 349 1004 366 1020 q 310 987 333 987 q 271 1004 287 987 q 254 1043 254 1021 m 503 1043 q 519 1082 503 1066 q 559 1099 536 1099 q 598 1082 582 1099 q 614 1043 614 1066 q 598 1004 614 1021 q 559 987 581 987 q 519 1004 536 987 q 503 1043 503 1020 z "},"Ì":{"ha":492,"x_min":36,"x_max":456,"o":"m 36 888 l 36 920 l 456 920 l 456 888 l 437 888 q 348 877 369 888 q 320 836 327 866 q 313 690 313 805 l 313 239 q 318 97 313 131 q 345 47 323 64 q 429 31 367 31 l 456 31 l 456 0 l 36 0 l 36 31 l 63 31 q 145 46 122 31 q 174 93 168 61 q 180 239 180 124 l 180 690 q 174 832 180 800 q 146 876 168 864 q 56 888 125 888 l 36 888 m 308 1000 l 205 1085 q 114 1165 130 1147 q 98 1202 98 1184 q 139 1240 98 1240 q 179 1223 161 1240 q 229 1158 197 1207 l 330 1000 l 308 1000 z "},"Í":{"ha":492,"x_min":36,"x_max":456,"o":"m 36 888 l 36 920 l 456 920 l 456 888 l 437 888 q 348 877 369 888 q 320 836 327 866 q 313 690 313 805 l 313 239 q 318 97 313 131 q 345 47 323 64 q 429 31 367 31 l 456 31 l 456 0 l 36 0 l 36 31 l 63 31 q 145 46 122 31 q 174 93 168 61 q 180 239 180 124 l 180 690 q 174 832 180 800 q 146 876 168 864 q 56 888 125 888 l 36 888 m 185 1000 l 163 1000 l 264 1158 q 314 1223 296 1206 q 354 1240 332 1240 q 385 1228 374 1240 q 395 1202 395 1216 q 381 1167 395 1184 q 288 1085 366 1150 l 185 1000 z "},"Î":{"ha":492,"x_min":36,"x_max":456,"o":"m 36 888 l 36 920 l 456 920 l 456 888 l 437 888 q 348 877 369 888 q 320 836 327 866 q 313 690 313 805 l 313 239 q 318 97 313 131 q 345 47 323 64 q 429 31 367 31 l 456 31 l 456 0 l 36 0 l 36 31 l 63 31 q 145 46 122 31 q 174 93 168 61 q 180 239 180 124 l 180 690 q 174 832 180 800 q 146 876 168 864 q 56 888 125 888 l 36 888 m 191 1237 l 260 1237 l 366 1047 q 383 1010 383 1017 q 376 1002 383 1002 q 344 1025 368 1002 l 212 1147 l 106 1021 q 80 999 87 999 q 73 1009 73 999 q 85 1041 73 1017 l 191 1237 z "},"Ï":{"ha":492,"x_min":36,"x_max":456,"o":"m 36 888 l 36 920 l 456 920 l 456 888 l 437 888 q 348 877 369 888 q 320 836 327 866 q 313 690 313 805 l 313 239 q 318 97 313 131 q 345 47 323 64 q 429 31 367 31 l 456 31 l 456 0 l 36 0 l 36 31 l 63 31 q 145 46 122 31 q 174 93 168 61 q 180 239 180 124 l 180 690 q 174 832 180 800 q 146 876 168 864 q 56 888 125 888 l 36 888 m 52 1043 q 67 1082 52 1065 q 107 1099 83 1099 q 146 1082 130 1099 q 163 1043 163 1066 q 146 1004 163 1020 q 107 987 130 987 q 68 1004 84 987 q 52 1043 52 1021 m 300 1043 q 317 1082 300 1066 q 356 1099 333 1099 q 395 1082 379 1099 q 412 1043 412 1066 q 395 1004 412 1021 q 356 987 378 987 q 317 1004 333 987 q 300 1043 300 1020 z "},"Ð":{"ha":1056,"x_min":26,"x_max":985,"o":"m 183 439 l 26 439 l 26 473 l 183 473 l 183 683 q 177 825 183 793 q 150 869 170 857 q 59 881 129 881 l 32 881 l 32 912 l 183 920 q 438 929 373 929 q 758 867 644 929 q 929 697 873 804 q 985 451 985 591 q 954 266 985 350 q 870 127 924 182 q 746 43 817 72 q 613 7 676 14 q 436 0 551 0 l 28 0 l 28 31 l 66 31 q 148 46 125 31 q 177 93 170 61 q 183 239 183 124 l 183 439 m 315 439 l 315 279 q 321 103 315 142 q 351 48 326 64 q 458 32 376 32 q 656 65 579 32 q 785 194 733 98 q 837 441 837 291 q 807 649 837 557 q 721 798 777 741 q 596 876 665 855 q 420 897 527 897 q 315 893 369 897 l 315 473 l 549 473 l 549 439 l 315 439 z "},"Ñ":{"ha":1042,"x_min":24,"x_max":1028,"o":"m 855 -21 l 205 841 l 205 203 q 213 98 205 123 q 257 52 220 73 q 367 31 294 31 l 367 0 l 24 0 l 24 31 q 124 55 90 36 q 165 97 159 75 q 172 203 172 119 l 172 690 q 162 832 172 796 q 131 878 152 868 q 35 888 109 888 l 35 920 l 307 920 l 851 200 l 851 750 q 839 836 851 811 q 787 874 826 860 q 694 888 749 888 l 694 920 l 1028 920 l 1028 888 q 936 866 970 884 q 893 824 903 848 q 884 740 884 799 l 884 -21 l 855 -21 m 361 975 l 341 975 q 379 1095 341 1055 q 470 1135 417 1135 q 578 1087 517 1135 q 668 1040 641 1040 q 736 1135 734 1040 l 757 1135 q 718 1011 757 1048 q 627 975 679 975 q 568 987 594 975 q 498 1034 542 1000 q 429 1069 452 1069 q 361 975 368 1069 z "},"Ò":{"ha":1143,"x_min":71,"x_max":1072,"o":"m 71 466 q 214 808 71 679 q 569 937 356 937 q 928 809 784 937 q 1072 461 1072 682 q 934 115 1072 248 q 571 -17 796 -17 q 212 115 352 -17 q 71 466 71 248 m 227 461 q 315 128 227 239 q 581 17 404 17 q 826 128 736 17 q 916 460 916 239 q 827 788 916 674 q 570 903 739 903 q 315 791 404 903 q 227 461 227 680 m 649 1000 l 546 1085 q 455 1165 471 1147 q 439 1202 439 1184 q 480 1240 439 1240 q 520 1223 503 1240 q 570 1158 538 1207 l 671 1000 l 649 1000 z "},"Ó":{"ha":1143,"x_min":71,"x_max":1072,"o":"m 71 466 q 214 808 71 679 q 569 937 356 937 q 928 809 784 937 q 1072 461 1072 682 q 934 115 1072 248 q 571 -17 796 -17 q 212 115 352 -17 q 71 466 71 248 m 227 461 q 315 128 227 239 q 581 17 404 17 q 826 128 736 17 q 916 460 916 239 q 827 788 916 674 q 570 903 739 903 q 315 791 404 903 q 227 461 227 680 m 494 1000 l 472 1000 l 574 1158 q 623 1223 605 1206 q 663 1240 641 1240 q 694 1228 683 1240 q 705 1202 705 1216 q 690 1167 705 1184 q 597 1085 675 1150 l 494 1000 z "},"Ô":{"ha":1143,"x_min":71,"x_max":1072,"o":"m 71 466 q 214 808 71 679 q 569 937 356 937 q 928 809 784 937 q 1072 461 1072 682 q 934 115 1072 248 q 571 -17 796 -17 q 212 115 352 -17 q 71 466 71 248 m 227 461 q 315 128 227 239 q 581 17 404 17 q 826 128 736 17 q 916 460 916 239 q 827 788 916 674 q 570 903 739 903 q 315 791 404 903 q 227 461 227 680 m 535 1237 l 604 1237 l 710 1047 q 727 1010 727 1017 q 720 1002 727 1002 q 688 1025 711 1002 l 555 1147 l 450 1021 q 424 999 431 999 q 416 1009 416 999 q 429 1041 416 1017 l 535 1237 z "},"Õ":{"ha":1143,"x_min":71,"x_max":1072,"o":"m 71 466 q 214 808 71 679 q 569 937 356 937 q 928 809 784 937 q 1072 461 1072 682 q 934 115 1072 248 q 571 -17 796 -17 q 212 115 352 -17 q 71 466 71 248 m 227 461 q 315 128 227 239 q 581 17 404 17 q 826 128 736 17 q 916 460 916 239 q 827 788 916 674 q 570 903 739 903 q 315 791 404 903 q 227 461 227 680 m 384 989 l 363 989 q 401 1109 363 1069 q 492 1149 439 1149 q 601 1101 539 1149 q 690 1054 663 1054 q 759 1149 756 1054 l 779 1149 q 740 1026 779 1063 q 650 989 701 989 q 590 1002 616 989 q 520 1048 564 1015 q 452 1084 475 1084 q 384 989 391 1084 z "},"Ö":{"ha":1143,"x_min":71,"x_max":1072,"o":"m 71 466 q 214 808 71 679 q 569 937 356 937 q 928 809 784 937 q 1072 461 1072 682 q 934 115 1072 248 q 571 -17 796 -17 q 212 115 352 -17 q 71 466 71 248 m 227 461 q 315 128 227 239 q 581 17 404 17 q 826 128 736 17 q 916 460 916 239 q 827 788 916 674 q 570 903 739 903 q 315 791 404 903 q 227 461 227 680 m 391 1043 q 407 1082 391 1065 q 447 1099 422 1099 q 486 1082 470 1099 q 503 1043 503 1066 q 486 1004 503 1020 q 447 987 470 987 q 408 1004 424 987 q 391 1043 391 1021 m 640 1043 q 656 1082 640 1066 q 696 1099 673 1099 q 735 1082 719 1099 q 751 1043 751 1066 q 735 1004 751 1021 q 696 987 718 987 q 656 1004 673 987 q 640 1043 640 1020 z "},"×":{"ha":926,"x_min":130,"x_max":798,"o":"m 130 726 l 180 778 l 464 494 l 747 778 l 798 726 l 515 442 l 795 162 l 744 111 l 464 391 l 182 111 l 130 162 l 412 442 l 130 726 z "},"Ø":{"ha":1143,"x_min":71,"x_max":1072,"o":"m 242 88 q 71 466 71 224 q 213 807 71 678 q 569 937 355 937 q 887 843 750 937 l 966 935 l 992 914 l 913 823 q 1072 463 1072 690 q 934 115 1072 247 q 572 -17 795 -17 q 267 70 395 -17 l 191 -19 l 168 0 l 242 88 m 296 151 l 834 781 q 570 903 739 903 q 377 849 454 903 q 263 695 300 795 q 227 461 227 595 q 296 151 227 265 m 852 752 l 315 125 q 581 17 406 17 q 826 128 735 17 q 916 462 916 239 q 852 752 916 635 z "},"Ù":{"ha":1071,"x_min":28,"x_max":1041,"o":"m 734 920 l 1041 920 l 1041 888 q 950 861 980 884 q 913 808 920 838 q 906 695 906 779 l 906 389 q 897 215 906 272 q 844 103 888 158 q 721 16 800 48 q 538 -17 642 -17 q 330 25 415 -17 q 209 133 245 66 q 172 310 172 199 l 173 404 l 173 690 q 166 832 173 800 q 139 876 160 864 q 49 888 119 888 l 28 888 l 28 920 l 448 920 l 448 888 l 429 888 q 340 877 361 888 q 312 836 319 866 q 305 690 305 805 l 305 401 q 319 187 305 250 q 397 77 333 124 q 569 30 462 30 q 722 61 653 30 q 824 140 791 93 q 865 237 858 187 q 873 394 873 287 l 873 707 q 864 817 873 785 q 826 866 855 848 q 734 888 797 884 l 734 920 m 629 1000 l 526 1085 q 435 1165 451 1147 q 418 1202 418 1184 q 460 1240 418 1240 q 500 1223 482 1240 q 549 1158 517 1207 l 651 1000 l 629 1000 z "},"Ú":{"ha":1071,"x_min":28,"x_max":1041,"o":"m 734 920 l 1041 920 l 1041 888 q 950 861 980 884 q 913 808 920 838 q 906 695 906 779 l 906 389 q 897 215 906 272 q 844 103 888 158 q 721 16 800 48 q 538 -17 642 -17 q 330 25 415 -17 q 209 133 245 66 q 172 310 172 199 l 173 404 l 173 690 q 166 832 173 800 q 139 876 160 864 q 49 888 119 888 l 28 888 l 28 920 l 448 920 l 448 888 l 429 888 q 340 877 361 888 q 312 836 319 866 q 305 690 305 805 l 305 401 q 319 187 305 250 q 397 77 333 124 q 569 30 462 30 q 722 61 653 30 q 824 140 791 93 q 865 237 858 187 q 873 394 873 287 l 873 707 q 864 817 873 785 q 826 866 855 848 q 734 888 797 884 l 734 920 m 530 1000 l 508 1000 l 610 1158 q 659 1223 641 1206 q 699 1240 677 1240 q 730 1228 719 1240 q 741 1202 741 1216 q 726 1167 741 1184 q 633 1085 711 1150 l 530 1000 z "},"Û":{"ha":1071,"x_min":28,"x_max":1041,"o":"m 734 920 l 1041 920 l 1041 888 q 950 861 980 884 q 913 808 920 838 q 906 695 906 779 l 906 389 q 897 215 906 272 q 844 103 888 158 q 721 16 800 48 q 538 -17 642 -17 q 330 25 415 -17 q 209 133 245 66 q 172 310 172 199 l 173 404 l 173 690 q 166 832 173 800 q 139 876 160 864 q 49 888 119 888 l 28 888 l 28 920 l 448 920 l 448 888 l 429 888 q 340 877 361 888 q 312 836 319 866 q 305 690 305 805 l 305 401 q 319 187 305 250 q 397 77 333 124 q 569 30 462 30 q 722 61 653 30 q 824 140 791 93 q 865 237 858 187 q 873 394 873 287 l 873 707 q 864 817 873 785 q 826 866 855 848 q 734 888 797 884 l 734 920 m 547 1237 l 616 1237 l 722 1047 q 739 1010 739 1017 q 732 1002 739 1002 q 700 1025 724 1002 l 568 1147 l 462 1021 q 436 999 443 999 q 429 1009 429 999 q 441 1041 429 1017 l 547 1237 z "},"Ü":{"ha":1071,"x_min":28,"x_max":1041,"o":"m 734 920 l 1041 920 l 1041 888 q 950 861 980 884 q 913 808 920 838 q 906 695 906 779 l 906 389 q 897 215 906 272 q 844 103 888 158 q 721 16 800 48 q 538 -17 642 -17 q 330 25 415 -17 q 209 133 245 66 q 172 310 172 199 l 173 404 l 173 690 q 166 832 173 800 q 139 876 160 864 q 49 888 119 888 l 28 888 l 28 920 l 448 920 l 448 888 l 429 888 q 340 877 361 888 q 312 836 319 866 q 305 690 305 805 l 305 401 q 319 187 305 250 q 397 77 333 124 q 569 30 462 30 q 722 61 653 30 q 824 140 791 93 q 865 237 858 187 q 873 394 873 287 l 873 707 q 864 817 873 785 q 826 866 855 848 q 734 888 797 884 l 734 920 m 404 1043 q 419 1082 404 1065 q 459 1099 435 1099 q 498 1082 482 1099 q 515 1043 515 1066 q 498 1004 515 1020 q 459 987 482 987 q 420 1004 436 987 q 404 1043 404 1021 m 652 1043 q 669 1082 652 1066 q 708 1099 685 1099 q 747 1082 731 1099 q 764 1043 764 1066 q 747 1004 764 1021 q 708 987 730 987 q 669 1004 685 987 q 652 1043 652 1020 z "},"Ý":{"ha":941,"x_min":0,"x_max":941,"o":"m 523 402 l 704 707 q 749 812 749 781 q 725 865 749 841 q 640 888 701 888 l 640 920 l 941 920 l 941 888 q 840 842 878 880 q 742 705 802 804 l 536 361 l 536 239 q 543 90 536 122 q 573 44 550 58 q 665 31 597 31 l 665 0 l 273 0 l 273 31 l 288 31 q 370 46 347 31 q 399 93 393 61 q 405 239 405 124 l 405 353 l 176 729 q 83 865 106 843 q 0 888 60 887 l 0 920 l 373 920 l 373 888 q 269 841 269 888 q 303 765 269 822 l 523 402 m 450 1000 l 427 1000 l 529 1158 q 578 1223 560 1206 q 618 1240 596 1240 q 649 1228 638 1240 q 660 1202 660 1216 q 645 1167 660 1184 q 553 1085 631 1150 l 450 1000 z "},"Þ":{"ha":781,"x_min":45,"x_max":771,"o":"m 467 920 l 467 888 l 436 888 q 355 874 377 888 q 327 832 333 859 q 319 716 321 805 l 319 707 l 376 708 q 596 685 519 708 q 722 606 673 663 q 771 462 771 549 q 725 311 771 371 q 609 231 679 250 q 420 212 539 212 l 319 212 q 338 62 319 92 q 436 31 357 31 l 467 31 l 467 0 l 45 0 l 45 31 l 70 31 q 152 46 129 31 q 180 93 174 61 q 186 239 186 124 l 186 690 q 180 832 186 800 q 153 876 174 864 q 62 888 132 888 l 45 888 l 45 920 l 467 920 m 319 247 l 385 247 q 513 263 465 247 q 595 330 562 279 q 627 455 627 380 q 571 622 627 569 q 390 675 515 675 q 319 673 344 675 l 319 247 z "},"ß":{"ha":724,"x_min":20,"x_max":675,"o":"m 452 513 q 617 425 559 494 q 675 250 675 357 q 617 67 675 142 q 456 -7 559 -7 q 381 12 408 -7 q 355 54 355 31 q 389 90 355 90 q 444 54 413 90 q 492 26 468 26 q 545 63 527 26 q 563 201 563 100 q 520 433 563 371 q 367 495 477 495 l 351 495 q 326 511 326 495 q 343 525 326 525 l 353 525 q 360 524 357 524 q 526 705 526 524 q 489 854 526 804 q 376 904 451 904 q 269 870 308 904 q 222 783 230 836 q 215 576 215 730 l 215 191 q 217 78 215 101 q 237 43 220 55 q 298 31 254 31 l 298 0 l 20 0 l 20 31 l 35 31 q 98 45 83 31 q 115 78 113 59 q 117 191 117 98 l 117 576 q 125 730 117 677 q 169 831 134 783 q 259 906 204 880 q 384 932 315 932 q 570 870 500 932 q 639 722 639 808 q 590 591 639 644 q 452 513 541 538 z "},"à":{"ha":651,"x_min":54,"x_max":637,"o":"m 612 102 l 637 102 q 523 -14 631 -14 q 450 10 477 -14 q 415 83 423 35 q 291 10 347 35 q 191 -14 235 -14 q 94 18 135 -14 q 54 104 54 51 q 122 227 54 174 q 310 328 190 279 l 415 371 l 415 398 q 408 481 415 456 q 369 528 400 507 q 287 548 338 548 q 174 480 185 548 q 117 411 163 411 q 75 450 75 411 q 130 533 75 489 q 301 578 185 578 q 435 551 387 578 q 497 489 482 524 q 513 383 513 454 l 513 159 q 521 58 513 80 q 556 35 529 35 q 612 102 601 35 m 415 339 l 341 309 q 166 130 166 238 q 189 61 166 87 q 247 35 211 35 q 321 56 279 35 q 415 119 363 77 l 415 339 m 390 680 l 287 765 q 196 845 212 827 q 180 882 180 864 q 221 920 180 920 q 261 903 243 920 q 311 838 279 887 l 412 680 l 390 680 z "},"á":{"ha":651,"x_min":54,"x_max":637,"o":"m 612 102 l 637 102 q 523 -14 631 -14 q 450 10 477 -14 q 415 83 423 35 q 291 10 347 35 q 191 -14 235 -14 q 94 18 135 -14 q 54 104 54 51 q 122 227 54 174 q 310 328 190 279 l 415 371 l 415 398 q 408 481 415 456 q 369 528 400 507 q 287 548 338 548 q 174 480 185 548 q 117 411 163 411 q 75 450 75 411 q 130 533 75 489 q 301 578 185 578 q 435 551 387 578 q 497 489 482 524 q 513 383 513 454 l 513 159 q 521 58 513 80 q 556 35 529 35 q 612 102 601 35 m 415 339 l 341 309 q 166 130 166 238 q 189 61 166 87 q 247 35 211 35 q 321 56 279 35 q 415 119 363 77 l 415 339 m 252 680 l 229 680 l 331 838 q 380 903 362 886 q 420 920 398 920 q 451 908 440 920 q 462 882 462 896 q 447 847 462 864 q 355 765 433 830 l 252 680 z "},"â":{"ha":651,"x_min":54,"x_max":637,"o":"m 612 102 l 637 102 q 523 -14 631 -14 q 450 10 477 -14 q 415 83 423 35 q 291 10 347 35 q 191 -14 235 -14 q 94 18 135 -14 q 54 104 54 51 q 122 227 54 174 q 310 328 190 279 l 415 371 l 415 398 q 408 481 415 456 q 369 528 400 507 q 287 548 338 548 q 174 480 185 548 q 117 411 163 411 q 75 450 75 411 q 130 533 75 489 q 301 578 185 578 q 435 551 387 578 q 497 489 482 524 q 513 383 513 454 l 513 159 q 521 58 513 80 q 556 35 529 35 q 612 102 601 35 m 415 339 l 341 309 q 166 130 166 238 q 189 61 166 87 q 247 35 211 35 q 321 56 279 35 q 415 119 363 77 l 415 339 m 276 917 l 345 917 l 451 727 q 468 690 468 697 q 460 682 468 682 q 429 705 452 682 l 296 827 l 191 701 q 165 679 172 679 q 157 689 157 679 q 170 721 157 696 l 276 917 z "},"ã":{"ha":651,"x_min":54,"x_max":637,"o":"m 612 102 l 637 102 q 523 -14 631 -14 q 450 10 477 -14 q 415 83 423 35 q 291 10 347 35 q 191 -14 235 -14 q 94 18 135 -14 q 54 104 54 51 q 122 227 54 174 q 310 328 190 279 l 415 371 l 415 398 q 408 481 415 456 q 369 528 400 507 q 287 548 338 548 q 174 480 185 548 q 117 411 163 411 q 75 450 75 411 q 130 533 75 489 q 301 578 185 578 q 435 551 387 578 q 497 489 482 524 q 513 383 513 454 l 513 159 q 521 58 513 80 q 556 35 529 35 q 612 102 601 35 m 415 339 l 341 309 q 166 130 166 238 q 189 61 166 87 q 247 35 211 35 q 321 56 279 35 q 415 119 363 77 l 415 339 m 125 722 l 105 722 q 143 842 105 802 q 234 882 181 882 q 342 834 281 882 q 432 787 405 787 q 500 882 498 787 l 521 882 q 482 759 521 795 q 391 722 443 722 q 332 734 358 722 q 262 781 306 747 q 193 817 216 817 q 125 722 132 817 z "},"ä":{"ha":651,"x_min":54,"x_max":637,"o":"m 612 102 l 637 102 q 523 -14 631 -14 q 450 10 477 -14 q 415 83 423 35 q 291 10 347 35 q 191 -14 235 -14 q 94 18 135 -14 q 54 104 54 51 q 122 227 54 174 q 310 328 190 279 l 415 371 l 415 398 q 408 481 415 456 q 369 528 400 507 q 287 548 338 548 q 174 480 185 548 q 117 411 163 411 q 75 450 75 411 q 130 533 75 489 q 301 578 185 578 q 435 551 387 578 q 497 489 482 524 q 513 383 513 454 l 513 159 q 521 58 513 80 q 556 35 529 35 q 612 102 601 35 m 415 339 l 341 309 q 166 130 166 238 q 189 61 166 87 q 247 35 211 35 q 321 56 279 35 q 415 119 363 77 l 415 339 m 117 802 q 132 840 117 823 q 172 857 148 857 q 212 841 195 857 q 228 802 228 825 q 212 762 228 779 q 172 746 195 746 q 133 763 149 746 q 117 802 117 779 m 366 802 q 382 841 366 825 q 421 857 398 857 q 460 841 444 857 q 477 802 477 825 q 460 763 477 779 q 421 746 444 746 q 382 762 398 746 q 366 802 366 779 z "},"å":{"ha":651,"x_min":54,"x_max":637,"o":"m 612 102 l 637 102 q 523 -14 631 -14 q 450 10 477 -14 q 415 83 423 35 q 291 10 347 35 q 191 -14 235 -14 q 94 18 135 -14 q 54 104 54 51 q 122 227 54 174 q 310 328 190 279 l 415 371 l 415 398 q 408 481 415 456 q 369 528 400 507 q 287 548 338 548 q 174 480 185 548 q 117 411 163 411 q 75 450 75 411 q 130 533 75 489 q 301 578 185 578 q 435 551 387 578 q 497 489 482 524 q 513 383 513 454 l 513 159 q 521 58 513 80 q 556 35 529 35 q 612 102 601 35 m 415 339 l 341 309 q 166 130 166 238 q 189 61 166 87 q 247 35 211 35 q 321 56 279 35 q 415 119 363 77 l 415 339 m 182 798 q 218 884 182 848 q 304 920 254 920 q 391 884 355 920 q 427 798 427 848 q 391 711 427 747 q 304 675 355 675 q 217 711 252 675 q 182 798 182 748 m 220 798 q 245 738 220 763 q 304 713 270 713 q 364 738 339 713 q 389 798 389 763 q 364 857 389 832 q 304 882 340 882 q 244 857 268 882 q 220 798 220 831 z "},"æ":{"ha":868,"x_min":43,"x_max":830,"o":"m 830 367 l 454 367 l 454 313 q 464 146 454 201 q 517 54 474 92 q 623 16 560 16 q 793 123 741 16 l 819 114 q 731 12 793 47 q 595 -22 669 -22 q 463 10 518 -22 q 375 107 408 43 q 283 10 331 43 q 184 -22 235 -22 q 84 19 126 -22 q 43 114 43 60 q 116 252 43 193 q 359 367 189 310 l 359 395 q 336 516 359 484 q 254 549 313 549 q 155 488 169 549 q 96 418 138 418 q 53 456 53 418 q 116 540 53 503 q 262 578 180 578 q 356 561 312 578 q 437 511 399 545 q 597 578 498 578 q 751 524 687 578 q 830 367 815 470 m 715 395 q 678 510 713 473 q 590 547 642 547 q 501 510 541 547 q 454 395 462 473 l 715 395 m 359 337 q 187 247 229 293 q 144 146 144 200 q 173 66 144 93 q 235 39 201 39 q 298 64 267 39 q 359 136 329 88 l 359 337 z "},"ç":{"ha":593,"x_min":50,"x_max":561,"o":"m 334 -22 l 324 -81 q 426 -114 390 -81 q 463 -195 463 -147 q 416 -290 463 -251 q 285 -328 369 -328 q 179 -311 224 -328 l 189 -284 q 270 -297 229 -297 q 354 -273 326 -297 q 381 -216 381 -249 q 352 -157 381 -178 q 281 -137 323 -137 l 304 -22 q 119 70 189 -12 q 50 271 50 152 q 137 492 50 406 q 344 578 224 578 q 476 546 416 578 q 536 469 536 515 q 525 436 536 451 q 493 422 514 422 q 438 473 448 422 q 413 529 430 513 q 345 545 395 545 q 208 481 254 545 q 162 291 162 418 q 209 91 162 168 q 360 13 256 13 q 531 135 494 13 l 561 135 q 334 -22 518 -16 z "},"è":{"ha":608,"x_min":52,"x_max":555,"o":"m 555 368 l 168 368 q 165 308 165 328 q 211 88 165 161 q 347 14 256 14 q 522 125 471 14 l 555 125 q 469 17 533 56 q 328 -22 404 -22 q 195 13 258 -22 q 92 114 132 49 q 52 272 52 179 q 130 491 52 404 q 323 578 207 578 q 492 511 432 578 q 555 368 551 445 m 436 395 q 438 422 438 410 q 403 515 438 482 q 317 548 368 548 q 170 395 194 548 l 436 395 m 397 680 l 294 765 q 203 845 220 827 q 187 882 187 864 q 229 920 187 920 q 269 903 251 920 q 318 838 286 887 l 420 680 l 397 680 z "},"é":{"ha":608,"x_min":52,"x_max":555,"o":"m 555 368 l 168 368 q 165 308 165 328 q 211 88 165 161 q 347 14 256 14 q 522 125 471 14 l 555 125 q 469 17 533 56 q 328 -22 404 -22 q 195 13 258 -22 q 92 114 132 49 q 52 272 52 179 q 130 491 52 404 q 323 578 207 578 q 492 511 432 578 q 555 368 551 445 m 436 395 q 438 422 438 410 q 403 515 438 482 q 317 548 368 548 q 170 395 194 548 l 436 395 m 235 680 l 212 680 l 314 838 q 363 903 345 886 q 404 920 381 920 q 434 908 423 920 q 445 882 445 896 q 430 847 445 864 q 338 765 416 830 l 235 680 z "},"ê":{"ha":608,"x_min":52,"x_max":555,"o":"m 555 368 l 168 368 q 165 308 165 328 q 211 88 165 161 q 347 14 256 14 q 522 125 471 14 l 555 125 q 469 17 533 56 q 328 -22 404 -22 q 195 13 258 -22 q 92 114 132 49 q 52 272 52 179 q 130 491 52 404 q 323 578 207 578 q 492 511 432 578 q 555 368 551 445 m 436 395 q 438 422 438 410 q 403 515 438 482 q 317 548 368 548 q 170 395 194 548 l 436 395 m 267 917 l 336 917 l 442 727 q 459 690 459 697 q 452 682 459 682 q 420 705 444 682 l 288 827 l 182 701 q 156 679 163 679 q 149 689 149 679 q 161 721 149 696 l 267 917 z "},"ë":{"ha":608,"x_min":52,"x_max":555,"o":"m 555 368 l 168 368 q 165 308 165 328 q 211 88 165 161 q 347 14 256 14 q 522 125 471 14 l 555 125 q 469 17 533 56 q 328 -22 404 -22 q 195 13 258 -22 q 92 114 132 49 q 52 272 52 179 q 130 491 52 404 q 323 578 207 578 q 492 511 432 578 q 555 368 551 445 m 436 395 q 438 422 438 410 q 403 515 438 482 q 317 548 368 548 q 170 395 194 548 l 436 395 m 123 802 q 139 840 123 823 q 179 857 155 857 q 218 841 202 857 q 235 802 235 825 q 218 762 235 779 q 179 746 202 746 q 140 763 156 746 q 123 802 123 779 m 372 802 q 389 841 372 825 q 428 857 405 857 q 467 841 451 857 q 484 802 484 825 q 467 763 484 779 q 428 746 450 746 q 389 762 405 746 q 372 802 372 779 z "},"ì":{"ha":347,"x_min":22,"x_max":321,"o":"m 224 578 l 224 191 q 227 79 224 102 q 246 43 229 56 q 307 31 263 31 l 321 31 l 321 0 l 22 0 l 22 31 l 45 31 q 107 45 93 31 q 124 78 122 59 q 127 191 127 98 l 127 359 q 118 478 127 456 q 93 505 109 500 q 40 511 78 511 l 22 511 l 22 542 q 209 578 142 554 l 224 578 m 240 680 l 137 765 q 46 845 62 827 q 30 882 30 864 q 71 920 30 920 q 111 903 94 920 q 161 838 129 887 l 262 680 l 240 680 z "},"í":{"ha":347,"x_min":22,"x_max":321,"o":"m 224 578 l 224 191 q 227 79 224 102 q 246 43 229 56 q 307 31 263 31 l 321 31 l 321 0 l 22 0 l 22 31 l 45 31 q 107 45 93 31 q 124 78 122 59 q 127 191 127 98 l 127 359 q 118 478 127 456 q 93 505 109 500 q 40 511 78 511 l 22 511 l 22 542 q 209 578 142 554 l 224 578 m 77 680 l 54 680 l 156 838 q 205 903 187 886 q 245 920 223 920 q 276 908 265 920 q 287 882 287 896 q 272 847 287 864 q 180 765 258 830 l 77 680 z "},"î":{"ha":347,"x_min":16,"x_max":326,"o":"m 224 578 l 224 191 q 227 79 224 102 q 246 43 229 56 q 307 31 263 31 l 321 31 l 321 0 l 22 0 l 22 31 l 45 31 q 107 45 93 31 q 124 78 122 59 q 127 191 127 98 l 127 359 q 118 478 127 456 q 93 505 109 500 q 40 511 78 511 l 22 511 l 22 542 q 209 578 142 554 l 224 578 m 134 917 l 203 917 l 309 727 q 326 690 326 697 q 319 682 326 682 q 287 705 311 682 l 155 827 l 49 701 q 23 679 30 679 q 16 689 16 679 q 28 721 16 696 l 134 917 z "},"ï":{"ha":347,"x_min":-9,"x_max":351,"o":"m 224 578 l 224 191 q 227 79 224 102 q 246 43 229 56 q 307 31 263 31 l 321 31 l 321 0 l 22 0 l 22 31 l 45 31 q 107 45 93 31 q 124 78 122 59 q 127 191 127 98 l 127 359 q 118 478 127 456 q 93 505 109 500 q 40 511 78 511 l 22 511 l 22 542 q 209 578 142 554 l 224 578 m -9 802 q 6 840 -9 823 q 46 857 22 857 q 85 841 69 857 q 102 802 102 825 q 85 762 102 779 q 46 746 69 746 q 7 763 23 746 q -9 802 -9 779 m 239 802 q 256 841 239 825 q 295 857 272 857 q 334 841 318 857 q 351 802 351 825 q 334 763 351 779 q 295 746 317 746 q 256 762 272 746 q 239 802 239 779 z "},"ð":{"ha":694,"x_min":51,"x_max":644,"o":"m 180 884 l 231 937 q 397 822 286 909 l 557 904 l 576 871 l 425 791 q 575 588 507 724 q 644 297 644 452 q 554 66 644 150 q 351 -17 465 -17 q 139 63 227 -17 q 51 281 51 142 q 136 496 51 411 q 344 582 222 582 q 500 520 444 582 q 347 754 458 647 l 150 652 l 132 684 l 319 781 q 180 884 256 837 m 163 273 q 209 78 163 143 q 343 13 254 13 q 476 66 422 13 q 530 300 530 120 q 349 551 530 551 q 210 482 256 551 q 163 273 163 412 z "},"ñ":{"ha":738,"x_min":39,"x_max":708,"o":"m 191 578 l 210 578 q 227 463 225 536 q 330 549 276 521 q 441 578 383 578 q 550 550 508 578 q 605 482 593 522 q 617 364 617 441 l 617 191 q 621 73 617 94 q 642 42 624 52 q 708 31 660 31 l 708 0 l 424 0 l 424 31 l 437 31 q 500 45 486 31 q 517 79 515 60 q 519 191 519 98 l 519 370 q 513 464 519 435 q 478 513 507 492 q 407 535 450 535 q 312 506 357 535 q 227 417 267 476 l 227 191 q 231 73 227 94 q 253 42 235 52 q 319 31 271 31 l 319 0 l 39 0 l 39 31 q 104 41 85 31 q 126 70 122 50 q 131 191 131 89 l 131 356 q 127 474 131 453 q 105 505 123 494 q 39 515 87 515 l 39 547 q 191 578 113 555 m 186 722 l 165 722 q 203 842 165 802 q 294 882 241 882 q 403 834 341 882 q 492 787 465 787 q 561 882 558 787 l 581 882 q 542 759 581 795 q 452 722 503 722 q 392 734 418 722 q 322 781 366 747 q 254 817 277 817 q 186 722 193 817 z "},"ò":{"ha":694,"x_min":52,"x_max":644,"o":"m 52 279 q 137 492 52 406 q 347 578 222 578 q 558 492 473 578 q 644 279 644 406 q 557 58 644 138 q 347 -22 470 -22 q 138 59 224 -22 q 52 279 52 141 m 164 275 q 212 68 164 127 q 347 9 260 9 q 483 68 436 9 q 530 275 530 127 q 484 484 530 422 q 347 547 437 547 q 211 485 258 547 q 164 275 164 422 m 441 680 l 338 765 q 248 845 264 827 q 231 882 231 864 q 273 920 231 920 q 313 903 295 920 q 362 838 330 887 l 464 680 l 441 680 z "},"ó":{"ha":694,"x_min":52,"x_max":644,"o":"m 52 279 q 137 492 52 406 q 347 578 222 578 q 558 492 473 578 q 644 279 644 406 q 557 58 644 138 q 347 -22 470 -22 q 138 59 224 -22 q 52 279 52 141 m 164 275 q 212 68 164 127 q 347 9 260 9 q 483 68 436 9 q 530 275 530 127 q 484 484 530 422 q 347 547 437 547 q 211 485 258 547 q 164 275 164 422 m 254 680 l 231 680 l 333 838 q 382 903 364 886 q 422 920 400 920 q 453 908 442 920 q 464 882 464 896 q 449 847 464 864 q 357 765 435 830 l 254 680 z "},"ô":{"ha":694,"x_min":52,"x_max":644,"o":"m 52 279 q 137 492 52 406 q 347 578 222 578 q 558 492 473 578 q 644 279 644 406 q 557 58 644 138 q 347 -22 470 -22 q 138 59 224 -22 q 52 279 52 141 m 164 275 q 212 68 164 127 q 347 9 260 9 q 483 68 436 9 q 530 275 530 127 q 484 484 530 422 q 347 547 437 547 q 211 485 258 547 q 164 275 164 422 m 311 917 l 380 917 l 486 727 q 503 690 503 697 q 496 682 503 682 q 464 705 488 682 l 332 827 l 226 701 q 200 679 207 679 q 193 689 193 679 q 205 721 193 696 l 311 917 z "},"õ":{"ha":694,"x_min":52,"x_max":644,"o":"m 52 279 q 137 492 52 406 q 347 578 222 578 q 558 492 473 578 q 644 279 644 406 q 557 58 644 138 q 347 -22 470 -22 q 138 59 224 -22 q 52 279 52 141 m 164 275 q 212 68 164 127 q 347 9 260 9 q 483 68 436 9 q 530 275 530 127 q 484 484 530 422 q 347 547 437 547 q 211 485 258 547 q 164 275 164 422 m 160 722 l 140 722 q 178 842 140 802 q 269 882 216 882 q 377 834 315 882 q 467 787 439 787 q 535 882 532 787 l 555 882 q 516 759 555 795 q 426 722 477 722 q 367 734 393 722 q 296 781 340 747 q 228 817 251 817 q 160 722 167 817 z "},"ö":{"ha":694,"x_min":52,"x_max":644,"o":"m 52 279 q 137 492 52 406 q 347 578 222 578 q 558 492 473 578 q 644 279 644 406 q 557 58 644 138 q 347 -22 470 -22 q 138 59 224 -22 q 52 279 52 141 m 164 275 q 212 68 164 127 q 347 9 260 9 q 483 68 436 9 q 530 275 530 127 q 484 484 530 422 q 347 547 437 547 q 211 485 258 547 q 164 275 164 422 m 168 802 q 183 840 168 823 q 223 857 199 857 q 262 841 246 857 q 279 802 279 825 q 262 762 279 779 q 223 746 246 746 q 184 763 200 746 q 168 802 168 779 m 416 802 q 433 841 416 825 q 472 857 449 857 q 511 841 495 857 q 528 802 528 825 q 511 763 528 779 q 472 746 494 746 q 433 762 449 746 q 416 802 416 779 z "},"÷":{"ha":926,"x_min":96,"x_max":829,"o":"m 412 729 q 426 762 412 748 q 461 775 440 775 q 495 761 481 775 q 509 726 509 747 q 495 692 509 707 q 461 677 481 677 q 426 692 441 677 q 412 729 412 707 m 96 479 l 829 479 l 829 409 l 96 409 l 96 479 m 511 168 q 496 133 511 147 q 461 119 481 119 q 426 133 441 119 q 412 168 412 147 q 426 202 412 188 q 461 217 441 217 q 496 202 481 217 q 511 168 511 188 z "},"ø":{"ha":694,"x_min":52,"x_max":644,"o":"m 136 61 q 52 279 52 144 q 137 492 52 406 q 347 578 222 578 q 529 517 449 578 l 597 596 l 618 578 l 550 500 q 644 279 644 412 q 557 58 644 138 q 347 -22 470 -22 q 157 43 240 -22 l 85 -40 l 64 -22 l 136 61 m 185 119 l 491 474 q 347 547 448 547 q 211 485 258 547 q 164 275 164 422 q 185 119 164 175 m 505 447 l 197 90 q 347 9 244 9 q 484 70 437 9 q 530 275 530 130 q 505 447 530 380 z "},"ù":{"ha":724,"x_min":31,"x_max":688,"o":"m 604 555 l 604 191 q 606 77 604 100 q 626 43 609 54 q 688 31 644 31 l 688 0 q 538 -22 585 -1 l 530 -22 q 507 107 508 16 q 412 10 465 43 q 294 -22 359 -22 q 196 3 239 -22 q 137 65 153 28 q 121 176 121 102 l 121 365 q 118 483 121 461 q 97 514 115 504 q 31 524 79 524 l 31 555 l 219 555 l 219 170 q 226 87 219 113 q 260 42 233 62 q 325 23 288 23 q 425 57 377 23 q 489 130 472 92 q 507 239 507 168 l 507 365 q 505 475 507 456 q 487 510 503 495 q 424 524 472 524 l 410 524 l 410 555 l 604 555 m 437 680 l 334 765 q 243 845 260 827 q 227 882 227 864 q 269 920 227 920 q 309 903 291 920 q 358 838 326 887 l 460 680 l 437 680 z "},"ú":{"ha":724,"x_min":31,"x_max":688,"o":"m 604 555 l 604 191 q 606 77 604 100 q 626 43 609 54 q 688 31 644 31 l 688 0 q 538 -22 585 -1 l 530 -22 q 507 107 508 16 q 412 10 465 43 q 294 -22 359 -22 q 196 3 239 -22 q 137 65 153 28 q 121 176 121 102 l 121 365 q 118 483 121 461 q 97 514 115 504 q 31 524 79 524 l 31 555 l 219 555 l 219 170 q 226 87 219 113 q 260 42 233 62 q 325 23 288 23 q 425 57 377 23 q 489 130 472 92 q 507 239 507 168 l 507 365 q 505 475 507 456 q 487 510 503 495 q 424 524 472 524 l 410 524 l 410 555 l 604 555 m 266 680 l 243 680 l 345 838 q 394 903 376 886 q 435 920 412 920 q 465 908 454 920 q 476 882 476 896 q 461 847 476 864 q 369 765 447 830 l 266 680 z "},"û":{"ha":724,"x_min":31,"x_max":688,"o":"m 604 555 l 604 191 q 606 77 604 100 q 626 43 609 54 q 688 31 644 31 l 688 0 q 538 -22 585 -1 l 530 -22 q 507 107 508 16 q 412 10 465 43 q 294 -22 359 -22 q 196 3 239 -22 q 137 65 153 28 q 121 176 121 102 l 121 365 q 118 483 121 461 q 97 514 115 504 q 31 524 79 524 l 31 555 l 219 555 l 219 170 q 226 87 219 113 q 260 42 233 62 q 325 23 288 23 q 425 57 377 23 q 489 130 472 92 q 507 239 507 168 l 507 365 q 505 475 507 456 q 487 510 503 495 q 424 524 472 524 l 410 524 l 410 555 l 604 555 m 323 917 l 391 917 l 498 727 q 515 690 515 697 q 507 682 515 682 q 475 705 499 682 l 343 827 l 237 701 q 212 679 218 679 q 204 689 204 679 q 217 721 204 696 l 323 917 z "},"ü":{"ha":724,"x_min":31,"x_max":688,"o":"m 604 555 l 604 191 q 606 77 604 100 q 626 43 609 54 q 688 31 644 31 l 688 0 q 538 -22 585 -1 l 530 -22 q 507 107 508 16 q 412 10 465 43 q 294 -22 359 -22 q 196 3 239 -22 q 137 65 153 28 q 121 176 121 102 l 121 365 q 118 483 121 461 q 97 514 115 504 q 31 524 79 524 l 31 555 l 219 555 l 219 170 q 226 87 219 113 q 260 42 233 62 q 325 23 288 23 q 425 57 377 23 q 489 130 472 92 q 507 239 507 168 l 507 365 q 505 475 507 456 q 487 510 503 495 q 424 524 472 524 l 410 524 l 410 555 l 604 555 m 180 802 q 195 840 180 823 q 235 857 211 857 q 275 841 258 857 q 291 802 291 825 q 275 762 291 779 q 235 746 258 746 q 196 763 212 746 q 180 802 180 779 m 429 802 q 445 841 429 825 q 484 857 461 857 q 524 841 507 857 q 540 802 540 825 q 523 763 540 779 q 484 746 507 746 q 445 762 461 746 q 429 802 429 779 z "},"ý":{"ha":637,"x_min":-7,"x_max":637,"o":"m 360 105 l 489 414 q 517 489 517 481 q 441 524 517 523 l 441 555 l 637 555 l 637 524 q 570 500 591 522 q 518 403 549 478 l 271 -195 q 208 -311 235 -280 q 149 -342 181 -342 q 104 -302 104 -342 q 175 -224 104 -256 q 230 -193 216 -205 q 258 -146 244 -180 l 311 -14 l 102 434 q 56 509 74 493 q -7 524 37 524 l -7 555 l 248 555 l 248 524 q 181 496 181 522 q 208 430 181 486 l 360 105 m 237 680 l 215 680 l 317 838 q 366 903 348 886 q 406 920 384 920 q 437 908 426 920 q 448 882 448 896 q 433 847 448 864 q 340 765 418 830 l 237 680 z "},"þ":{"ha":724,"x_min":2,"x_max":669,"o":"m 184 932 l 201 932 l 201 486 q 295 555 245 532 q 400 578 345 578 q 592 497 515 578 q 669 283 669 416 q 592 65 669 153 q 389 -22 515 -22 q 291 -2 338 -22 q 201 60 243 19 l 201 -151 q 205 -269 201 -248 q 227 -300 209 -290 q 292 -311 244 -311 l 292 -342 l 2 -342 l 2 -311 l 22 -311 q 85 -297 71 -311 q 102 -263 100 -283 q 104 -151 104 -244 l 104 708 q 102 820 104 797 q 83 856 100 843 q 22 868 66 868 l 2 868 l 2 899 q 184 932 79 903 m 201 104 q 279 37 238 60 q 366 14 320 14 q 499 80 442 14 q 556 290 556 146 q 501 476 556 414 q 370 538 446 538 q 281 514 323 538 q 201 442 239 490 l 201 104 z "},"ÿ":{"ha":637,"x_min":-7,"x_max":637,"o":"m 360 105 l 489 414 q 517 489 517 481 q 441 524 517 523 l 441 555 l 637 555 l 637 524 q 570 500 591 522 q 518 403 549 478 l 271 -195 q 208 -311 235 -280 q 149 -342 181 -342 q 104 -302 104 -342 q 175 -224 104 -256 q 230 -193 216 -205 q 258 -146 244 -180 l 311 -14 l 102 434 q 56 509 74 493 q -7 524 37 524 l -7 555 l 248 555 l 248 524 q 181 496 181 522 q 208 430 181 486 l 360 105 m 153 802 q 168 840 153 823 q 208 857 184 857 q 248 841 231 857 q 264 802 264 825 q 248 762 264 779 q 208 746 231 746 q 169 763 185 746 q 153 802 153 779 m 401 802 q 418 841 401 825 q 457 857 434 857 q 496 841 480 857 q 513 802 513 825 q 496 763 513 779 q 457 746 479 746 q 418 762 434 746 q 401 802 401 779 z "},"ı":{"ha":347,"x_min":22,"x_max":321,"o":"m 224 578 l 224 191 q 227 79 224 102 q 246 43 229 56 q 307 31 263 31 l 321 31 l 321 0 l 22 0 l 22 31 l 45 31 q 107 45 93 31 q 124 78 122 59 q 127 191 127 98 l 127 359 q 118 478 127 456 q 93 505 109 500 q 40 511 78 511 l 22 511 l 22 542 q 209 578 142 554 l 224 578 z "},"Œ":{"ha":1302,"x_min":71,"x_max":1261,"o":"m 1261 290 l 1242 0 l 800 0 q 614 -3 696 0 q 535 -5 569 -5 q 375 17 450 -5 q 228 99 300 39 q 114 254 156 159 q 71 451 71 349 q 125 677 71 564 q 287 858 180 790 q 547 925 393 925 q 658 921 570 925 q 748 920 725 920 l 1154 920 l 1173 699 l 1141 699 q 1093 828 1122 785 q 1037 879 1064 870 q 948 888 1009 888 l 774 888 l 774 503 l 876 503 q 967 530 945 503 q 989 650 989 557 l 1021 650 l 1021 324 l 989 324 q 978 425 989 396 q 948 462 968 453 q 875 471 928 471 l 774 471 l 774 259 q 780 101 774 141 q 808 46 786 62 q 906 31 831 31 l 977 31 q 1099 50 1055 31 q 1180 143 1143 68 q 1231 290 1217 218 l 1261 290 m 641 745 q 636 840 641 819 q 606 877 632 861 q 524 893 580 893 q 311 780 395 893 q 227 471 227 667 q 305 144 227 260 q 515 28 383 28 q 614 60 585 28 q 642 159 642 92 l 641 250 l 641 745 z "},"œ":{"ha":1071,"x_min":52,"x_max":1034,"o":"m 1034 369 l 629 369 q 623 273 623 328 q 680 80 623 147 q 827 14 736 14 q 932 44 884 14 q 1000 125 980 75 l 1027 115 q 942 15 1005 53 q 806 -22 879 -22 q 680 9 741 -22 q 585 92 619 40 q 347 -22 497 -22 q 132 67 212 -22 q 52 273 52 157 q 141 491 52 405 q 352 578 230 578 q 585 473 493 578 q 798 578 675 578 q 954 521 888 578 q 1034 369 1019 464 m 916 397 q 876 511 913 473 q 782 548 838 548 q 693 511 734 548 q 635 397 652 473 l 916 397 m 164 241 q 210 65 164 123 q 346 6 255 6 q 475 61 422 6 q 528 280 528 117 q 511 435 528 383 q 451 517 494 487 q 346 547 408 547 q 247 517 289 547 q 184 431 204 486 q 164 241 164 376 z "},"Š":{"ha":752,"x_min":80,"x_max":688,"o":"m 80 9 l 80 305 l 114 305 q 387 16 172 16 q 537 72 484 16 q 591 195 591 127 q 544 311 591 264 q 373 410 497 357 q 206 493 262 458 q 118 586 150 529 q 87 707 87 643 q 155 871 87 806 q 328 937 223 937 q 437 918 386 937 q 543 839 489 899 q 578 920 574 876 l 608 920 l 608 679 l 578 679 q 487 844 553 784 q 336 905 422 905 q 215 860 254 905 q 177 763 177 816 q 225 655 177 699 q 397 555 273 610 q 569 470 515 502 q 656 380 623 437 q 688 249 688 323 q 610 57 688 131 q 399 -17 531 -17 q 147 99 248 -17 q 114 9 125 67 l 80 9 m 397 1010 l 328 1010 l 221 1200 q 205 1236 205 1230 q 212 1245 205 1245 q 244 1222 220 1245 l 376 1099 l 482 1225 q 508 1247 501 1247 q 515 1237 515 1247 q 503 1204 515 1227 l 397 1010 z "},"š":{"ha":463,"x_min":56,"x_max":417,"o":"m 56 -18 l 56 165 l 83 165 q 248 7 129 7 q 325 38 299 7 q 350 106 350 69 q 323 178 350 150 q 215 245 295 205 q 94 326 131 286 q 58 423 58 366 q 97 528 58 478 q 208 578 136 578 q 328 519 280 578 q 354 568 338 529 l 379 568 l 379 397 l 354 397 q 301 503 340 458 q 210 547 262 547 q 144 522 169 547 q 119 464 119 497 q 146 401 119 427 q 250 339 174 374 q 391 237 366 287 q 417 141 417 187 q 369 23 417 68 q 249 -22 321 -22 q 113 41 172 -22 q 83 -18 94 20 l 56 -18 m 273 680 l 205 680 l 98 869 q 81 906 81 899 q 89 915 81 915 q 121 892 97 915 l 253 769 l 359 895 q 385 917 378 917 q 392 907 392 917 q 379 873 392 897 l 273 680 z "},"Ÿ":{"ha":941,"x_min":0,"x_max":941,"o":"m 523 402 l 704 707 q 749 812 749 781 q 725 865 749 841 q 640 888 701 888 l 640 920 l 941 920 l 941 888 q 840 842 878 880 q 742 705 802 804 l 536 361 l 536 239 q 543 90 536 122 q 573 44 550 58 q 665 31 597 31 l 665 0 l 273 0 l 273 31 l 288 31 q 370 46 347 31 q 399 93 393 61 q 405 239 405 124 l 405 353 l 176 729 q 83 865 106 843 q 0 888 60 887 l 0 920 l 373 920 l 373 888 q 269 841 269 888 q 303 765 269 822 l 523 402 m 315 1057 q 330 1095 315 1078 q 370 1112 346 1112 q 410 1096 393 1112 q 426 1057 426 1080 q 410 1017 426 1034 q 370 1001 393 1001 q 331 1018 347 1001 q 315 1057 315 1034 m 564 1057 q 580 1096 564 1080 q 619 1112 596 1112 q 659 1096 642 1112 q 675 1057 675 1080 q 658 1018 675 1034 q 619 1001 642 1001 q 580 1017 596 1001 q 564 1057 564 1034 z "},"Ž":{"ha":882,"x_min":42,"x_max":817,"o":"m 42 0 l 42 24 l 635 888 l 349 888 q 229 881 257 888 q 164 827 201 873 q 109 708 127 781 l 79 708 l 109 920 l 792 920 l 792 888 l 205 31 l 486 31 q 667 54 629 31 q 738 131 706 76 q 785 238 769 186 l 817 238 l 785 0 l 42 0 m 475 987 l 406 987 l 299 1177 q 283 1214 283 1207 q 290 1223 283 1223 q 322 1200 298 1223 l 454 1077 l 560 1202 q 586 1225 579 1225 q 593 1215 593 1225 q 581 1181 593 1205 l 475 987 z "},"ž":{"ha":593,"x_min":36,"x_max":536,"o":"m 36 0 l 36 21 l 404 524 l 202 524 q 150 519 163 524 q 116 487 136 514 q 77 401 97 459 l 52 401 l 61 555 l 526 555 l 526 531 l 160 31 l 312 31 q 411 39 386 31 q 460 80 436 47 q 509 177 485 112 l 536 177 l 520 0 l 36 0 m 355 680 l 286 680 l 179 869 q 163 906 163 899 q 170 915 163 915 q 202 892 178 915 l 334 769 l 440 895 q 466 917 459 917 q 473 907 473 917 q 460 873 473 897 l 355 680 z "},"ƒ":{"ha":680,"x_min":-281,"x_max":671,"o":"m 445 555 l 436 526 l 317 526 l 212 129 q 55 -233 140 -140 q -133 -325 -31 -325 q -236 -298 -190 -325 q -281 -233 -281 -272 q -267 -196 -281 -210 q -234 -182 -253 -182 q -198 -198 -212 -182 q -184 -232 -184 -214 q -186 -249 -184 -237 l -188 -260 q -172 -284 -188 -273 q -132 -295 -155 -295 q 5 -208 -51 -295 q 131 140 60 -121 l 235 526 l 101 526 l 110 555 l 244 555 q 255 595 246 564 q 551 932 347 932 q 641 907 610 932 q 671 856 671 881 q 637 820 671 820 q 580 867 610 820 q 528 901 558 901 q 428 845 467 901 q 347 628 390 789 l 327 555 l 445 555 z "},"ˆ":{"ha":463,"x_min":76,"x_max":387,"o":"m 195 917 l 263 917 l 370 727 q 387 690 387 697 q 379 682 387 682 q 347 705 371 682 l 215 827 l 109 701 q 83 679 90 679 q 76 689 76 679 q 89 721 76 696 l 195 917 z "},"ˇ":{"ha":463,"x_min":76,"x_max":387,"o":"m 268 690 l 199 690 l 92 880 q 76 916 76 909 q 83 925 76 925 q 115 902 92 925 l 248 779 l 353 905 q 379 927 372 927 q 387 917 387 927 q 374 884 387 907 l 268 690 z "},"ˉ":{"ha":463,"x_min":24,"x_max":439,"o":"m 24 817 l 439 817 l 439 753 l 24 753 l 24 817 z "},"˘":{"ha":463,"x_min":47,"x_max":416,"o":"m 47 905 l 76 905 q 126 833 84 865 q 229 801 168 801 q 389 905 354 801 l 416 905 q 355 767 409 817 q 231 717 301 717 q 111 765 163 717 q 47 905 58 814 z "},"˙":{"ha":463,"x_min":165,"x_max":298,"o":"m 298 812 q 278 765 298 784 q 231 745 258 745 q 184 765 204 745 q 165 812 165 784 q 184 858 165 839 q 231 878 204 878 q 278 858 259 878 q 298 812 298 839 z "},"˚":{"ha":463,"x_min":109,"x_max":354,"o":"m 109 798 q 145 884 109 848 q 231 920 181 920 q 318 884 282 920 q 354 798 354 848 q 318 711 354 747 q 231 675 281 675 q 144 711 179 675 q 109 798 109 748 m 147 798 q 172 738 147 763 q 231 713 197 713 q 291 738 266 713 q 315 798 315 763 q 291 857 315 832 q 231 882 267 882 q 171 857 195 882 q 147 798 147 831 z "},"˛":{"ha":463,"x_min":81,"x_max":382,"o":"m 138 11 l 168 11 q 141 -70 141 -31 q 181 -162 141 -123 q 292 -200 220 -200 q 370 -186 330 -200 l 382 -208 q 231 -252 309 -252 q 122 -214 163 -252 q 81 -123 81 -177 q 138 11 81 -62 z "},"˜":{"ha":463,"x_min":24,"x_max":439,"o":"m 44 722 l 24 722 q 62 842 24 802 q 153 882 100 882 q 261 834 199 882 q 351 787 323 787 q 419 882 416 787 l 439 882 q 400 759 439 795 q 310 722 361 722 q 251 734 277 722 q 180 781 224 747 q 112 817 135 817 q 44 722 51 817 z "},"˝":{"ha":463,"x_min":53,"x_max":411,"o":"m 243 690 l 216 690 l 288 825 q 335 893 317 882 q 368 905 353 905 q 397 895 382 905 q 411 868 411 886 q 402 840 411 852 q 358 795 393 827 l 243 690 m 79 690 l 53 690 l 123 825 q 171 893 153 882 q 204 905 189 905 q 233 895 220 905 q 247 868 247 885 q 238 840 247 852 q 195 795 230 827 l 79 690 z "},"̀":{"ha":0,"x_min":-463,"x_max":-230,"o":"m -252 680 l -355 765 q -446 845 -430 827 q -463 882 -463 864 q -421 920 -463 920 q -381 903 -399 920 q -332 838 -363 887 l -230 680 l -252 680 z "},"́":{"ha":0,"x_min":-463,"x_max":-230,"o":"m -440 680 l -463 680 l -361 838 q -312 903 -330 886 q -271 920 -294 920 q -241 908 -252 920 q -230 882 -230 896 q -244 847 -230 864 q -337 765 -259 830 l -440 680 z "},"̂":{"ha":0,"x_min":-502,"x_max":-191,"o":"m -383 917 l -315 917 l -208 727 q -191 690 -191 697 q -199 682 -191 682 q -231 705 -207 682 l -363 827 l -469 701 q -494 679 -488 679 q -502 689 -502 679 q -489 721 -502 696 l -383 917 z "},"̃":{"ha":0,"x_min":-554,"x_max":-138,"o":"m -534 722 l -554 722 q -516 842 -554 802 q -425 882 -478 882 q -317 834 -378 882 q -227 787 -254 787 q -159 882 -161 787 l -138 882 q -177 759 -138 795 q -268 722 -216 722 q -327 734 -301 722 q -397 781 -353 747 q -466 817 -443 817 q -534 722 -527 817 z "},"̄":{"ha":0,"x_min":-702,"x_max":9,"o":"m -702 1093 l 9 1093 l 9 1024 l -702 1024 l -702 1093 z "},"̆":{"ha":0,"x_min":-530,"x_max":-162,"o":"m -530 905 l -502 905 q -452 833 -494 865 q -349 801 -410 801 q -189 905 -224 801 l -162 905 q -223 767 -169 817 q -347 717 -277 717 q -467 765 -414 717 q -530 905 -520 814 z "},"̇":{"ha":0,"x_min":-413,"x_max":-280,"o":"m -280 812 q -300 765 -280 784 q -347 745 -319 745 q -393 765 -374 745 q -413 812 -413 784 q -393 858 -413 839 q -347 878 -374 878 q -299 858 -319 878 q -280 812 -280 839 z "},"̈":{"ha":0,"x_min":-526,"x_max":-166,"o":"m -526 802 q -511 840 -526 823 q -471 857 -495 857 q -431 841 -448 857 q -415 802 -415 825 q -431 762 -415 779 q -471 746 -448 746 q -510 763 -494 746 q -526 802 -526 779 m -277 802 q -261 841 -277 825 q -222 857 -245 857 q -182 841 -199 857 q -166 802 -166 825 q -183 763 -166 779 q -222 746 -199 746 q -261 762 -245 746 q -277 802 -277 779 z "},"̊":{"ha":0,"x_min":-469,"x_max":-224,"o":"m -469 798 q -433 884 -469 848 q -347 920 -397 920 q -260 884 -296 920 q -224 798 -224 848 q -260 711 -224 747 q -347 675 -296 675 q -434 711 -399 675 q -469 798 -469 748 m -431 798 q -406 738 -431 763 q -347 713 -381 713 q -287 738 -312 713 q -262 798 -262 763 q -287 857 -262 832 q -347 882 -311 882 q -407 857 -383 882 q -431 798 -431 831 z "},"̋":{"ha":0,"x_min":-526,"x_max":-168,"o":"m -335 690 l -362 690 l -291 825 q -243 893 -261 882 q -211 905 -226 905 q -182 895 -196 905 q -168 868 -168 886 q -176 840 -168 852 q -220 795 -185 827 l -335 690 m -499 690 l -526 690 l -455 825 q -408 893 -425 882 q -374 905 -390 905 q -345 895 -359 905 q -332 868 -332 885 q -340 840 -332 852 q -384 795 -349 827 l -499 690 z "},"̌":{"ha":0,"x_min":-502,"x_max":-191,"o":"m -310 690 l -378 690 l -486 880 q -502 916 -502 909 q -494 925 -502 925 q -463 902 -486 925 l -330 779 l -224 905 q -199 927 -205 927 q -191 917 -191 927 q -204 884 -191 907 l -310 690 z "},"̧":{"ha":0,"x_min":-488,"x_max":-205,"o":"m -328 10 l -343 -81 q -241 -114 -277 -81 q -205 -195 -205 -147 q -255 -293 -205 -257 q -382 -328 -305 -328 q -488 -311 -443 -328 l -479 -284 q -397 -297 -439 -297 q -317 -275 -348 -297 q -286 -216 -286 -254 q -313 -160 -286 -182 q -387 -137 -339 -137 l -358 10 l -328 10 z "},"̨":{"ha":0,"x_min":-496,"x_max":-196,"o":"m -439 11 l -410 11 q -437 -70 -437 -31 q -397 -162 -437 -123 q -286 -200 -357 -200 q -208 -186 -248 -200 l -196 -208 q -347 -252 -269 -252 q -456 -214 -415 -252 q -496 -123 -496 -177 q -439 11 -496 -62 z "},"̸":{"ha":0,"x_min":-618,"x_max":-74,"o":"m -156 911 l -74 911 l -536 -22 l -618 -22 l -156 911 z "},"Ω":{"ha":1027,"x_min":39,"x_max":988,"o":"m 39 212 l 63 212 q 86 151 65 176 q 174 126 106 126 l 357 126 l 357 172 q 153 293 244 193 q 62 541 62 392 q 192 827 62 714 q 516 941 321 941 q 838 830 709 941 q 966 543 966 719 q 885 304 966 400 q 670 172 805 209 l 670 126 l 857 126 q 935 145 911 126 q 964 212 960 165 l 988 212 l 988 0 l 609 0 l 624 205 q 799 528 799 260 q 713 797 799 703 q 513 890 628 890 q 309 791 390 890 q 229 538 229 692 q 269 324 229 408 q 402 205 309 240 l 418 0 l 39 0 l 39 212 z "},"π":{"ha":738,"x_min":30,"x_max":682,"o":"m 682 621 l 682 522 l 525 522 q 498 211 498 362 q 524 121 498 148 q 583 94 549 94 q 658 170 650 94 l 682 170 q 632 26 670 71 q 543 -19 593 -19 q 459 27 494 -19 q 424 216 424 73 q 450 522 424 349 l 290 522 l 279 356 q 255 170 273 269 q 222 37 238 71 q 191 -8 206 3 q 159 -19 175 -19 q 116 -2 134 -19 q 98 37 98 14 q 103 71 98 58 q 142 129 109 84 q 189 243 177 177 q 215 522 201 309 l 195 522 q 120 504 150 522 q 54 427 90 486 l 30 427 q 83 549 50 503 q 148 608 115 595 q 250 621 181 621 l 682 621 z "},"–":{"ha":694,"x_min":-8,"x_max":703,"o":"m -8 445 l 703 445 l 703 414 l -8 414 l -8 445 z "},"—":{"ha":1389,"x_min":-8,"x_max":1397,"o":"m -8 445 l 1397 445 l 1397 414 l -8 414 l -8 445 z "},"‘":{"ha":347,"x_min":90,"x_max":269,"o":"m 262 925 l 262 890 q 130 743 130 864 q 156 700 130 700 q 170 702 161 700 q 197 707 185 707 q 250 686 230 707 q 269 638 269 665 q 249 591 269 612 q 197 570 229 570 q 122 611 154 570 q 90 720 90 652 q 135 853 90 798 q 262 925 180 909 z "},"’":{"ha":347,"x_min":90,"x_max":269,"o":"m 96 564 l 96 600 q 228 747 228 626 q 203 790 228 790 q 189 788 197 790 q 162 783 174 783 q 109 804 129 783 q 90 852 90 825 q 110 899 90 878 q 161 920 130 920 q 237 879 205 920 q 269 770 269 838 q 224 636 269 691 q 96 564 179 581 z "},"‚":{"ha":347,"x_min":90,"x_max":269,"o":"m 96 -232 l 96 -197 q 228 -50 228 -171 q 203 -7 228 -7 q 189 -9 197 -7 q 162 -14 174 -14 q 109 7 129 -14 q 90 55 90 28 q 109 101 90 80 q 161 123 127 123 q 237 82 205 123 q 269 -26 269 41 q 224 -161 269 -105 q 96 -232 179 -216 z "},"“":{"ha":637,"x_min":88,"x_max":574,"o":"m 260 925 l 260 890 q 129 743 129 864 q 155 700 129 700 q 168 702 160 700 q 195 707 184 707 q 248 686 229 707 q 268 638 268 665 q 248 591 268 612 q 196 570 228 570 q 120 611 153 570 q 88 720 88 652 q 133 853 88 798 q 260 925 178 909 m 568 925 l 568 890 q 436 743 436 864 q 461 700 436 700 q 475 702 467 700 q 502 707 491 707 q 555 686 535 707 q 574 638 574 665 q 554 591 574 612 q 503 570 534 570 q 427 611 458 570 q 395 720 395 652 q 440 853 395 798 q 568 925 486 909 z "},"”":{"ha":637,"x_min":68,"x_max":554,"o":"m 75 564 l 75 600 q 206 747 206 626 q 181 790 206 790 q 168 788 176 790 q 140 783 152 783 q 87 804 107 783 q 68 852 68 825 q 88 899 68 878 q 140 920 108 920 q 215 879 183 920 q 248 770 248 838 q 202 636 248 691 q 75 564 157 581 m 382 564 l 382 600 q 513 747 513 626 q 488 790 513 790 q 474 788 483 790 q 447 783 458 783 q 394 804 414 783 q 374 852 374 825 q 394 898 374 877 q 446 920 413 920 q 522 879 490 920 q 554 770 554 838 q 509 636 554 691 q 382 564 464 581 z "},"„":{"ha":637,"x_min":68,"x_max":554,"o":"m 75 -232 l 75 -196 q 206 -49 206 -170 q 181 -6 206 -6 q 168 -8 176 -6 q 140 -13 152 -13 q 87 8 107 -13 q 68 56 68 29 q 88 103 68 82 q 140 123 108 123 q 215 83 183 123 q 248 -26 248 42 q 202 -160 248 -104 q 75 -232 157 -216 m 382 -232 l 382 -196 q 513 -49 513 -170 q 488 -6 513 -6 q 474 -8 483 -6 q 447 -13 458 -13 q 393 9 412 -13 q 374 56 374 31 q 394 102 374 81 q 446 123 413 123 q 522 82 490 123 q 554 -26 554 41 q 507 -163 554 -111 q 382 -232 459 -215 z "},"†":{"ha":593,"x_min":41,"x_max":547,"o":"m 305 -332 l 271 -332 l 271 -30 q 263 243 271 109 q 256 389 256 353 q 267 521 256 446 q 271 583 271 556 q 169 555 230 581 q 107 541 133 541 q 61 556 80 541 q 41 596 41 572 q 61 637 41 621 q 105 654 81 654 q 165 639 127 654 q 271 613 224 616 q 237 761 270 669 q 220 840 220 806 q 239 898 220 876 q 288 920 257 920 q 335 898 315 920 q 356 836 356 877 q 340 763 356 806 q 305 613 308 678 q 420 642 347 613 q 478 655 456 655 q 527 640 508 655 q 547 598 547 624 q 530 557 547 576 q 479 539 513 539 q 408 560 450 539 q 305 583 363 583 q 311 515 305 553 q 320 389 320 456 q 316 279 320 354 q 305 -28 305 64 l 305 -332 z "},"‡":{"ha":593,"x_min":48,"x_max":537,"o":"m 309 357 l 281 357 q 274 431 280 388 q 267 513 267 477 q 281 637 267 571 q 193 616 229 630 q 114 595 141 595 q 65 613 81 595 q 48 651 48 630 q 66 690 48 674 q 113 707 85 707 q 186 688 140 707 q 281 666 237 669 q 253 780 281 705 q 235 857 235 831 q 251 906 235 886 q 293 926 267 926 q 333 907 315 926 q 351 856 351 888 q 332 774 351 831 q 306 666 310 710 q 396 688 342 667 q 470 703 438 703 q 535 651 535 703 q 517 612 535 627 q 470 597 498 597 q 392 617 445 597 q 306 637 338 637 q 320 524 320 581 q 313 400 320 476 q 309 357 309 368 m 281 241 l 309 241 q 317 119 310 174 q 323 46 323 76 q 309 -43 323 -5 q 408 -16 345 -39 q 474 1 456 1 q 518 -13 499 1 q 537 -50 537 -28 q 520 -87 537 -71 q 470 -104 503 -104 q 393 -85 448 -104 q 309 -68 344 -68 q 334 -169 311 -100 q 355 -258 355 -228 q 339 -308 355 -285 q 296 -331 323 -331 q 251 -310 270 -331 q 233 -258 233 -288 q 248 -190 233 -231 q 281 -68 280 -102 q 167 -97 254 -69 q 116 -107 135 -107 q 50 -54 50 -107 q 69 -16 50 -30 q 116 -1 89 -1 q 174 -15 138 -1 q 281 -43 248 -42 q 267 43 267 -6 q 273 112 267 66 q 281 241 281 165 z "},"•":{"ha":492,"x_min":76,"x_max":416,"o":"m 246 614 q 366 565 316 614 q 416 445 416 515 q 367 325 416 374 q 246 275 317 275 q 126 325 176 275 q 76 445 76 374 q 126 566 76 517 q 246 614 177 614 z "},"…":{"ha":1389,"x_min":162,"x_max":1230,"o":"m 308 51 q 287 -1 308 21 q 235 -22 265 -22 q 183 -1 205 -22 q 162 51 162 20 q 183 102 162 81 q 235 123 205 123 q 287 102 265 123 q 308 51 308 81 m 768 51 q 746 -1 768 21 q 695 -22 725 -22 q 643 -1 665 -22 q 622 51 622 20 q 643 102 622 81 q 695 123 665 123 q 746 102 725 123 q 768 51 768 81 m 1230 51 q 1208 -1 1230 21 q 1157 -22 1187 -22 q 1105 -1 1126 -22 q 1084 51 1084 20 q 1105 102 1084 81 q 1157 123 1127 123 q 1208 102 1187 123 q 1230 51 1230 81 z "},"‰":{"ha":1389,"x_min":41,"x_max":1348,"o":"m 409 695 q 356 522 409 590 q 225 454 304 454 q 92 525 143 454 q 41 695 41 595 q 92 867 41 797 q 225 937 144 937 q 357 868 304 937 q 409 695 409 800 m 321 695 q 297 858 321 804 q 225 911 273 911 q 153 858 177 911 q 129 695 129 804 q 153 533 129 587 q 225 479 177 479 q 297 533 273 479 q 321 695 321 587 m 249 0 l 208 0 l 680 888 l 721 888 l 249 0 m 891 220 q 840 47 891 117 q 707 -22 788 -22 q 573 49 623 -22 q 522 220 522 120 q 574 392 522 321 q 707 462 625 462 q 839 393 786 462 q 891 220 891 325 m 802 220 q 779 383 802 329 q 707 437 755 437 q 635 383 659 437 q 611 220 611 329 q 635 58 611 113 q 707 4 659 4 q 779 58 755 4 q 802 220 802 113 m 1348 220 q 1296 47 1348 117 q 1164 -22 1244 -22 q 1030 48 1082 -22 q 979 220 979 119 q 1031 392 979 321 q 1164 462 1082 462 q 1296 392 1244 462 q 1348 220 1348 322 m 1259 220 q 1236 383 1259 329 q 1164 437 1212 437 q 1092 383 1116 437 q 1067 220 1067 329 q 1092 58 1067 113 q 1164 4 1116 4 q 1236 58 1212 4 q 1259 220 1259 113 z "},"‹":{"ha":376,"x_min":47,"x_max":334,"o":"m 47 296 l 298 555 l 334 555 l 178 296 l 334 31 l 298 31 l 47 296 z "},"›":{"ha":376,"x_min":40,"x_max":328,"o":"m 328 296 l 76 31 l 40 31 l 197 296 l 40 555 l 76 555 l 328 296 z "},"⁄":{"ha":477,"x_min":-18,"x_max":495,"o":"m 23 0 l -18 0 l 454 888 l 495 888 l 23 0 z "},"⁴":{"ha":420,"x_min":23,"x_max":407,"o":"m 220 593 l 23 593 l 23 619 l 255 911 l 294 911 l 294 623 l 322 623 q 357 625 354 623 q 374 656 361 627 l 407 656 l 396 593 l 294 593 l 294 539 q 298 471 294 481 q 334 462 303 462 l 349 462 l 349 437 l 157 437 l 157 462 l 180 462 q 215 471 210 462 q 220 539 220 481 l 220 593 m 220 623 l 220 817 l 66 623 l 220 623 z "},"€":{"ha":681,"x_min":18,"x_max":647,"o":"m 208 367 q 431 11 233 11 q 497 33 469 11 q 547 113 526 54 q 606 170 567 170 q 635 156 624 170 q 647 122 647 143 q 589 22 647 66 q 432 -22 532 -22 q 202 78 290 -22 q 97 367 114 178 l 18 367 l 18 401 l 96 401 q 94 444 94 414 q 96 494 94 479 l 18 494 l 18 529 l 98 529 q 207 812 119 713 q 428 911 294 911 q 581 868 517 911 q 644 778 644 826 q 633 742 644 756 q 603 728 621 728 q 545 785 564 728 q 428 878 511 878 q 278 788 334 878 q 210 529 222 699 l 465 529 l 465 494 l 208 494 q 207 444 207 479 l 207 401 l 465 401 l 465 367 l 208 367 z "},"™":{"ha":1360,"x_min":20,"x_max":1338,"o":"m 35 920 l 528 920 l 543 783 l 520 783 q 492 848 517 817 q 389 879 467 879 l 338 879 l 338 486 q 351 414 338 429 q 410 397 365 399 l 410 372 l 156 372 l 156 397 q 209 410 193 399 q 224 486 224 420 l 224 879 l 172 879 q 79 857 105 879 q 43 783 53 834 l 20 783 l 35 920 m 784 920 l 969 532 l 1149 920 l 1338 920 l 1338 895 q 1276 877 1290 893 q 1263 803 1263 861 l 1263 486 q 1276 414 1263 428 q 1338 397 1289 399 l 1338 372 l 1068 372 l 1068 397 q 1134 414 1118 398 q 1149 485 1149 431 l 1149 819 l 941 372 l 919 372 l 710 812 l 710 486 q 722 415 710 433 q 773 397 734 397 l 798 397 l 798 372 l 590 372 l 590 397 q 651 410 636 397 q 667 486 667 423 l 667 802 q 653 878 667 862 q 590 895 640 895 l 590 920 l 784 920 z "},"Ω":{"ha":1027,"x_min":39,"x_max":988,"o":"m 39 212 l 63 212 q 86 151 65 176 q 174 126 106 126 l 357 126 l 357 172 q 153 293 244 193 q 62 541 62 392 q 192 827 62 714 q 516 941 321 941 q 838 830 709 941 q 966 543 966 719 q 885 304 966 400 q 670 172 805 209 l 670 126 l 857 126 q 935 145 911 126 q 964 212 960 165 l 988 212 l 988 0 l 609 0 l 624 205 q 799 528 799 260 q 713 797 799 703 q 513 890 628 890 q 309 791 390 890 q 229 538 229 692 q 269 324 229 408 q 402 205 309 240 l 418 0 l 39 0 l 39 212 z "},"∂":{"ha":680,"x_min":41,"x_max":672,"o":"m 627 486 q 635 612 635 559 q 572 801 635 733 q 400 868 508 868 q 285 841 336 868 q 197 760 234 814 l 165 760 q 276 913 212 863 q 422 964 340 964 q 601 881 530 964 q 672 622 672 798 q 559 179 672 379 q 271 -21 447 -21 q 106 37 172 -21 q 41 209 41 94 q 91 402 41 303 q 230 558 140 500 q 414 616 320 616 q 543 580 484 616 q 627 486 601 545 m 616 426 q 540 537 591 496 q 421 578 490 578 q 289 527 348 578 q 193 372 230 475 q 155 179 155 269 q 191 62 155 106 q 288 18 226 18 q 477 128 380 18 q 616 426 574 239 z "},"∆":{"ha":854,"x_min":20,"x_max":833,"o":"m 833 0 l 20 0 l 446 941 l 833 0 m 673 56 l 403 711 l 104 56 l 673 56 z "},"∏":{"ha":1143,"x_min":31,"x_max":1112,"o":"m 841 880 l 302 880 l 302 -212 q 328 -293 302 -269 q 412 -317 355 -317 l 436 -317 l 436 -342 l 31 -342 l 31 -317 l 55 -317 q 140 -292 114 -317 q 165 -212 165 -268 l 165 802 q 140 884 165 860 q 55 907 114 907 l 31 907 l 31 932 l 1112 932 l 1112 907 l 1088 907 q 1004 883 1029 907 q 979 802 979 858 l 979 -212 q 1004 -293 979 -269 q 1088 -317 1029 -317 l 1112 -317 l 1112 -342 l 707 -342 l 707 -317 l 731 -317 q 815 -292 790 -317 q 841 -212 841 -268 l 841 880 z "},"∑":{"ha":990,"x_min":29,"x_max":963,"o":"m 920 -342 l 29 -342 l 29 -317 l 481 295 l 29 907 l 29 932 l 896 932 l 914 705 l 887 705 q 718 878 869 878 l 216 878 l 597 358 l 171 -222 l 726 -222 q 820 -207 771 -222 q 894 -158 869 -191 q 936 -56 919 -124 l 963 -60 l 920 -342 z "},"∙":{"ha":376,"x_min":113,"x_max":259,"o":"m 113 460 q 135 511 113 490 q 186 532 156 532 q 238 511 216 532 q 259 460 259 490 q 237 408 259 429 q 186 387 216 387 q 134 409 155 387 q 113 460 113 431 z "},"√":{"ha":767,"x_min":59,"x_max":764,"o":"m 714 1267 l 764 1267 l 553 -53 l 216 640 l 82 578 l 59 621 l 263 724 l 538 165 l 714 1267 z "},"∞":{"ha":984,"x_min":33,"x_max":951,"o":"m 440 541 q 547 691 488 654 q 692 728 607 728 q 877 647 804 728 q 951 445 951 567 q 876 240 951 319 q 713 161 802 161 q 609 194 661 161 q 486 355 558 227 q 393 236 448 276 q 266 197 338 197 q 95 272 157 197 q 33 445 33 348 q 95 626 33 557 q 241 695 157 695 q 349 662 306 695 q 440 541 393 629 m 505 403 q 602 263 552 302 q 717 224 652 224 q 858 287 804 224 q 912 448 912 349 q 854 609 912 542 q 721 675 796 675 q 631 646 667 675 q 576 577 596 616 q 513 422 557 538 l 505 403 m 420 488 q 345 597 390 561 q 239 633 300 633 q 121 584 171 633 q 71 448 71 535 q 120 302 71 354 q 227 250 169 250 q 317 284 269 250 q 413 465 364 319 l 420 488 z "},"∫":{"ha":376,"x_min":-2,"x_max":378,"o":"m 134 643 l 144 939 q 161 1117 147 1065 q 189 1196 176 1168 q 233 1243 202 1223 q 293 1263 263 1263 q 350 1243 322 1263 q 378 1191 378 1222 q 360 1141 378 1161 q 315 1120 343 1120 q 264 1145 292 1120 q 237 1158 248 1158 q 210 1116 210 1158 q 216 1017 210 1086 q 241 553 241 739 q 233 247 241 519 q 180 -88 224 -26 q 79 -149 136 -149 q 22 -127 45 -149 q -2 -67 -2 -106 q 15 -19 -2 -38 q 59 0 32 0 q 106 -22 86 0 q 139 -43 125 -43 q 159 -33 153 -43 q 165 -2 165 -22 q 159 79 165 26 q 134 643 134 293 z "},"≈":{"ha":926,"x_min":100,"x_max":827,"o":"m 794 709 l 827 709 q 777 567 825 620 q 658 514 728 514 q 583 526 622 514 q 404 596 544 538 q 255 639 300 639 q 132 515 155 639 l 100 515 q 153 663 103 614 q 262 711 202 711 q 521 627 327 711 q 670 583 623 583 q 755 617 722 583 q 794 709 789 650 m 794 373 l 827 373 q 777 231 825 284 q 658 178 728 178 q 583 191 622 178 q 404 260 544 203 q 255 302 300 302 q 132 179 155 302 l 100 179 q 153 327 103 279 q 262 374 203 374 q 521 292 327 374 q 669 248 624 248 q 759 284 728 248 q 794 373 789 320 z "},"≠":{"ha":926,"x_min":97,"x_max":828,"o":"m 97 639 l 505 639 l 647 1000 l 709 1000 l 570 639 l 828 639 l 828 566 l 541 566 l 446 323 l 828 323 l 828 250 l 418 250 l 275 -109 l 213 -109 l 355 250 l 97 250 l 97 323 l 383 323 l 477 566 l 97 566 l 97 639 z "},"≤":{"ha":926,"x_min":96,"x_max":829,"o":"m 828 213 l 97 522 l 97 588 l 828 897 l 828 817 l 195 555 l 828 292 l 828 213 m 96 73 l 829 73 l 829 0 l 96 0 l 96 73 z "},"≥":{"ha":926,"x_min":96,"x_max":829,"o":"m 97 897 l 828 587 l 828 521 l 97 213 l 97 292 l 730 553 l 97 817 l 97 897 m 96 73 l 829 73 l 829 0 l 96 0 l 96 73 z "},"◊":{"ha":686,"x_min":32,"x_max":656,"o":"m 372 964 l 656 481 l 372 0 l 297 0 l 32 481 l 297 964 l 372 964 m 336 899 l 105 481 l 336 64 l 579 481 l 336 899 z "},"":{"ha":1153,"x_min":89,"x_max":1059,"o":"m 489 838 q 586 817 561 817 q 685 839 616 817 q 806 863 753 863 q 1025 749 932 863 q 927 636 954 689 q 900 521 900 583 q 948 367 900 436 q 1059 281 996 298 q 947 72 1023 172 q 793 -28 871 -28 q 696 -4 760 -28 q 591 16 636 16 q 492 -4 547 16 q 400 -29 435 -29 q 192 149 294 -29 q 89 500 89 326 q 166 758 89 657 q 367 859 244 859 q 489 838 418 859 m 794 1109 q 798 1096 798 1105 q 781 1013 798 1060 q 733 930 764 966 q 669 872 701 893 q 566 843 637 851 q 619 1022 567 947 q 791 1125 671 1097 q 794 1109 793 1121 z "},"ﬁ":{"ha":709,"x_min":7,"x_max":694,"o":"m 7 524 l 7 555 l 117 555 l 117 608 q 145 785 117 717 q 244 892 174 852 q 403 932 314 932 q 543 903 490 932 q 595 836 595 873 q 583 805 595 818 q 553 792 570 792 q 486 844 519 792 q 382 903 449 903 q 276 864 320 903 q 223 763 232 825 q 214 602 214 700 l 214 555 l 386 555 q 587 578 526 555 l 604 578 l 604 191 q 607 73 604 94 q 628 42 610 52 q 694 31 646 31 l 694 0 l 411 0 l 411 31 q 478 40 460 31 q 501 69 496 50 q 506 191 506 88 l 506 393 q 500 486 506 465 q 477 515 495 507 q 403 524 459 524 l 214 524 l 214 191 q 217 72 214 93 q 239 41 221 52 q 307 31 257 31 l 307 0 l 24 0 l 24 31 q 89 41 71 31 q 112 70 107 50 q 117 191 117 89 l 117 524 l 7 524 z "},"ﬂ":{"ha":709,"x_min":7,"x_max":694,"o":"m 518 913 q 589 932 529 915 l 605 932 l 605 191 q 608 74 605 96 q 629 42 612 53 q 694 31 647 31 l 694 0 l 410 0 l 410 31 q 477 40 459 31 q 500 69 496 50 q 505 191 505 88 l 505 524 l 213 524 l 213 191 q 217 73 213 94 q 238 42 220 52 q 304 31 256 31 l 304 0 l 24 0 l 24 31 q 89 41 71 31 q 111 70 106 50 q 116 191 116 89 l 116 524 l 7 524 l 7 555 l 116 555 l 116 608 q 141 778 116 711 q 238 889 167 845 q 401 932 309 932 q 518 913 470 932 m 505 815 q 486 844 499 821 q 381 903 450 903 q 275 864 319 903 q 222 765 231 826 q 213 602 213 703 l 213 555 l 505 555 l 505 815 z "}}}
